%TF.GenerationSoftware,KiCad,Pcbnew,(6.0.10)*%
%TF.CreationDate,2023-01-04T22:05:57-05:00*%
%TF.ProjectId,Bipolar power supply,4269706f-6c61-4722-9070-6f7765722073,0*%
%TF.SameCoordinates,PX2faf080PY5f5e100*%
%TF.FileFunction,Copper,L2,Bot*%
%TF.FilePolarity,Positive*%
%FSLAX46Y46*%
G04 Gerber Fmt 4.6, Leading zero omitted, Abs format (unit mm)*
G04 Created by KiCad (PCBNEW (6.0.10)) date 2023-01-04 22:05:57*
%MOMM*%
%LPD*%
G01*
G04 APERTURE LIST*
%TA.AperFunction,SMDPad,CuDef*%
%ADD10R,1.200000X1.400000*%
%TD*%
%TA.AperFunction,ComponentPad*%
%ADD11R,1.905000X2.000000*%
%TD*%
%TA.AperFunction,ComponentPad*%
%ADD12O,1.905000X2.000000*%
%TD*%
%TA.AperFunction,ComponentPad*%
%ADD13R,2.200000X2.200000*%
%TD*%
%TA.AperFunction,ComponentPad*%
%ADD14O,2.200000X2.200000*%
%TD*%
%TA.AperFunction,ComponentPad*%
%ADD15C,2.400000*%
%TD*%
%TA.AperFunction,ComponentPad*%
%ADD16O,2.400000X2.400000*%
%TD*%
%TA.AperFunction,ComponentPad*%
%ADD17R,10.000000X10.000000*%
%TD*%
%TA.AperFunction,ComponentPad*%
%ADD18R,1.600000X1.600000*%
%TD*%
%TA.AperFunction,ComponentPad*%
%ADD19C,1.600000*%
%TD*%
%TA.AperFunction,ComponentPad*%
%ADD20R,2.400000X2.400000*%
%TD*%
%TA.AperFunction,ComponentPad*%
%ADD21R,1.700000X1.700000*%
%TD*%
%TA.AperFunction,ComponentPad*%
%ADD22O,1.700000X1.700000*%
%TD*%
%TA.AperFunction,ComponentPad*%
%ADD23R,2.000000X2.000000*%
%TD*%
%TA.AperFunction,ComponentPad*%
%ADD24C,2.000000*%
%TD*%
%TA.AperFunction,SMDPad,CuDef*%
%ADD25R,1.800000X3.500000*%
%TD*%
%TA.AperFunction,ViaPad*%
%ADD26C,4.000000*%
%TD*%
%TA.AperFunction,Conductor*%
%ADD27C,1.500000*%
%TD*%
%TA.AperFunction,Conductor*%
%ADD28C,2.000000*%
%TD*%
%TA.AperFunction,Conductor*%
%ADD29C,0.500000*%
%TD*%
%TA.AperFunction,Conductor*%
%ADD30C,4.000000*%
%TD*%
G04 APERTURE END LIST*
D10*
X104000000Y18695000D03*
X106000000Y18695000D03*
X109500000Y18695000D03*
X111500000Y18695000D03*
X104000000Y16000000D03*
X106000000Y16000000D03*
X109500000Y16000000D03*
X111500000Y16000000D03*
X113150000Y27480000D03*
X115150000Y27480000D03*
X108150000Y27480000D03*
X110150000Y27480000D03*
X113150000Y29980000D03*
X115150000Y29980000D03*
X108150000Y29980000D03*
X110150000Y29980000D03*
D11*
X105920000Y12000000D03*
D12*
X108460000Y12000000D03*
X111000000Y12000000D03*
D13*
X140000000Y38080000D03*
D14*
X140000000Y27920000D03*
D15*
X23000000Y38000000D03*
D16*
X53480000Y38000000D03*
D15*
X23000000Y28000000D03*
D16*
X53480000Y28000000D03*
D17*
X6000000Y6000000D03*
D18*
X123000000Y18500000D03*
D19*
X123000000Y16500000D03*
D20*
X85000000Y17852032D03*
D15*
X85000000Y10352032D03*
D13*
X140000000Y18080000D03*
D14*
X140000000Y7920000D03*
D21*
X146000000Y25525000D03*
D22*
X146000000Y22985000D03*
X146000000Y20445000D03*
D20*
X67000000Y17813770D03*
D15*
X67000000Y10313770D03*
D23*
X132000000Y33103031D03*
D24*
X132000000Y28103031D03*
D15*
X23000000Y18000000D03*
D16*
X53480000Y18000000D03*
D20*
X85000000Y35852032D03*
D15*
X85000000Y28936230D03*
D18*
X123000000Y29500000D03*
D19*
X123000000Y27500000D03*
D11*
X110620000Y34000000D03*
D12*
X108080000Y34000000D03*
X105540000Y34000000D03*
D17*
X6000000Y40000000D03*
X6000000Y23000000D03*
D23*
X132000000Y17838385D03*
D24*
X132000000Y12838385D03*
D20*
X67000000Y35813770D03*
D15*
X67000000Y28313770D03*
X23000000Y8000000D03*
D16*
X53480000Y8000000D03*
D25*
X19000000Y31500000D03*
X19000000Y36500000D03*
X19000000Y9500000D03*
X19000000Y14500000D03*
D26*
X150000000Y44000000D03*
X150000000Y2000000D03*
D27*
X148500000Y35500000D02*
X143500000Y35500000D01*
X146000000Y9500000D02*
X146000000Y13000000D01*
X146000000Y34500000D02*
X146000000Y38000000D01*
X146000000Y8000000D02*
X146000000Y9500000D01*
X146000000Y33000000D02*
X146000000Y34500000D01*
D28*
X123000000Y37000000D02*
X109000000Y37000000D01*
X137500000Y35500000D02*
X136000000Y37000000D01*
X132000000Y33103031D02*
X132000000Y37000000D01*
X136000000Y37000000D02*
X133000000Y37000000D01*
D27*
X123000000Y29500000D02*
X123000000Y37000000D01*
D28*
X140000000Y38000000D02*
X137500000Y35500000D01*
X146000000Y25525000D02*
X146000000Y27000000D01*
D29*
X108150000Y29980000D02*
X108150000Y33930000D01*
D28*
X140000000Y38080000D02*
X140000000Y38000000D01*
D29*
X108150000Y33930000D02*
X108080000Y34000000D01*
X108150000Y29980000D02*
X108150000Y27480000D01*
D28*
X146000000Y27000000D02*
X137500000Y35500000D01*
X133000000Y37000000D02*
X123000000Y37000000D01*
X109000000Y37000000D02*
X108080000Y36080000D01*
X108080000Y36080000D02*
X108080000Y34000000D01*
X136000000Y9000000D02*
X138000000Y11000000D01*
D29*
X111500000Y18695000D02*
X111500000Y16000000D01*
D28*
X146000000Y19000000D02*
X146000000Y20445000D01*
D27*
X123000000Y9270000D02*
X123000000Y16500000D01*
D28*
X138000000Y11000000D02*
X146000000Y19000000D01*
X123270000Y9000000D02*
X132000000Y9000000D01*
X132000000Y12838385D02*
X132000000Y9000000D01*
D29*
X111500000Y14550000D02*
X111000000Y14050000D01*
D27*
X123270000Y9000000D02*
X123000000Y9270000D01*
D28*
X132000000Y9000000D02*
X136000000Y9000000D01*
X138000000Y9920000D02*
X138000000Y11000000D01*
D29*
X111000000Y14050000D02*
X111000000Y12000000D01*
X111500000Y16000000D02*
X111500000Y14550000D01*
D28*
X140000000Y7920000D02*
X138000000Y9920000D01*
X114000000Y9000000D02*
X111000000Y12000000D01*
X123270000Y9000000D02*
X114000000Y9000000D01*
X19000000Y31500000D02*
X23000000Y28000000D01*
X19000000Y14500000D02*
X23000000Y18000000D01*
D29*
X110150000Y27480000D02*
X113150000Y27480000D01*
D28*
X55666230Y35813770D02*
X53480000Y38000000D01*
X67000000Y35813770D02*
X55666230Y35813770D01*
X84961738Y35813770D02*
X85000000Y35852032D01*
X67000000Y35813770D02*
X84961738Y35813770D01*
X85000000Y35852032D02*
X103687968Y35852032D01*
X103687968Y35852032D02*
X105540000Y34000000D01*
X67000000Y28313770D02*
X67000000Y24000000D01*
X140515000Y22985000D02*
X140500000Y23000000D01*
D27*
X123000000Y22800000D02*
X123200000Y23000000D01*
D30*
X140500000Y23000000D02*
X133000000Y23000000D01*
D29*
X104000000Y18695000D02*
X104000000Y21000000D01*
D28*
X140000000Y22500000D02*
X140500000Y23000000D01*
X146000000Y22985000D02*
X140515000Y22985000D01*
D30*
X102000000Y23000000D02*
X86000000Y23000000D01*
D29*
X115150000Y23150000D02*
X115000000Y23000000D01*
D28*
X67000000Y22000000D02*
X66000000Y23000000D01*
X85000000Y28936230D02*
X85000000Y24000000D01*
X132000000Y28103031D02*
X132000000Y24000000D01*
D30*
X126000000Y23000000D02*
X123200000Y23000000D01*
X115000000Y23000000D02*
X102000000Y23000000D01*
D28*
X140000000Y27920000D02*
X140000000Y23500000D01*
D29*
X115150000Y29980000D02*
X115150000Y27480000D01*
D28*
X132000000Y22000000D02*
X133000000Y23000000D01*
D29*
X115150000Y27480000D02*
X115150000Y23150000D01*
D28*
X140000000Y18080000D02*
X140000000Y22500000D01*
X132000000Y17838385D02*
X132000000Y22000000D01*
D30*
X133000000Y23000000D02*
X126000000Y23000000D01*
D27*
X123000000Y23200000D02*
X123200000Y23000000D01*
D28*
X140000000Y23500000D02*
X140500000Y23000000D01*
D29*
X104000000Y16000000D02*
X104000000Y18695000D01*
D30*
X123200000Y23000000D02*
X115000000Y23000000D01*
D28*
X85000000Y17852032D02*
X85000000Y22000000D01*
X67000000Y17813770D02*
X67000000Y22000000D01*
D27*
X123000000Y27500000D02*
X123000000Y23200000D01*
D28*
X85000000Y22000000D02*
X86000000Y23000000D01*
X132000000Y24000000D02*
X133000000Y23000000D01*
D30*
X86000000Y23000000D02*
X66000000Y23000000D01*
D29*
X104000000Y21000000D02*
X102000000Y23000000D01*
D28*
X85000000Y24000000D02*
X86000000Y23000000D01*
X67000000Y24000000D02*
X66000000Y23000000D01*
D30*
X66000000Y23000000D02*
X6000000Y23000000D01*
D27*
X123000000Y18500000D02*
X123000000Y22800000D01*
D28*
X67000000Y10313770D02*
X84961738Y10313770D01*
X102960000Y9040000D02*
X108460000Y9040000D01*
X67000000Y10313770D02*
X55793770Y10313770D01*
X55793770Y10313770D02*
X53480000Y8000000D01*
X108460000Y9040000D02*
X108460000Y12000000D01*
X84961738Y10313770D02*
X85000000Y10352032D01*
X85000000Y10352032D02*
X101647968Y10352032D01*
X101647968Y10352032D02*
X102960000Y9040000D01*
D29*
X110620000Y34000000D02*
X110150000Y33530000D01*
X110150000Y33530000D02*
X110150000Y29980000D01*
X110150000Y29980000D02*
X113150000Y29980000D01*
X105920000Y14070000D02*
X105920000Y12000000D01*
X109500000Y16000000D02*
X106000000Y16000000D01*
X106000000Y14150000D02*
X105920000Y14070000D01*
X106000000Y16000000D02*
X106000000Y14150000D01*
D28*
X23000000Y38000000D02*
X53480000Y28000000D01*
D29*
X106000000Y18695000D02*
X109500000Y18695000D01*
D28*
X23000000Y8000000D02*
X53480000Y18000000D01*
X9500000Y36500000D02*
X6000000Y40000000D01*
X19000000Y36500000D02*
X9500000Y36500000D01*
X19000000Y9500000D02*
X9500000Y9500000D01*
X9500000Y9500000D02*
X6000000Y6000000D01*
M02*
