%TF.GenerationSoftware,KiCad,Pcbnew,(6.0.10)*%
%TF.CreationDate,2023-01-15T18:31:13-05:00*%
%TF.ProjectId,Bipolar power supply,4269706f-6c61-4722-9070-6f7765722073,0*%
%TF.SameCoordinates,PX2faf080PY80befc0*%
%TF.FileFunction,Drillmap*%
%TF.FilePolarity,Positive*%
%FSLAX45Y45*%
G04 Gerber Fmt 4.5, Leading zero omitted, Abs format (unit mm)*
G04 Created by KiCad (PCBNEW (6.0.10)) date 2023-01-15 18:31:13*
%MOMM*%
%LPD*%
G01*
G04 APERTURE LIST*
%ADD10C,0.100000*%
%ADD11C,0.200000*%
%ADD12C,0.080000*%
%ADD13C,0.090000*%
%ADD14C,0.110000*%
%ADD15C,0.120000*%
%ADD16C,0.140000*%
%ADD17C,0.160000*%
%ADD18C,0.375000*%
G04 APERTURE END LIST*
D10*
X0Y7000000D02*
X10000000Y7000000D01*
X10000000Y7000000D02*
X10000000Y0D01*
X10000000Y0D02*
X0Y0D01*
X0Y0D02*
X0Y7000000D01*
D11*
D12*
X6560000Y4590000D02*
X6640000Y4510000D01*
X6640000Y4590000D02*
X6560000Y4510000D01*
X6560000Y4390000D02*
X6640000Y4310000D01*
X6640000Y4390000D02*
X6560000Y4310000D01*
X6560000Y2690000D02*
X6640000Y2610000D01*
X6640000Y2690000D02*
X6560000Y2610000D01*
X6560000Y2490000D02*
X6640000Y2410000D01*
X6640000Y2490000D02*
X6560000Y2410000D01*
D13*
X8995000Y4654000D02*
G75*
G03*
X8995000Y4654000I-45000J0D01*
G01*
X8995000Y4400000D02*
G75*
G03*
X8995000Y4400000I-45000J0D01*
G01*
X8995000Y2600000D02*
G75*
G03*
X8995000Y2600000I-45000J0D01*
G01*
X8995000Y2346000D02*
G75*
G03*
X8995000Y2346000I-45000J0D01*
G01*
D10*
X7500000Y4613232D02*
X7500000Y4513232D01*
X7450000Y4563232D02*
X7550000Y4563232D01*
X7500000Y4113232D02*
X7500000Y4013232D01*
X7450000Y4063232D02*
X7550000Y4063232D01*
X7500000Y3020606D02*
X7500000Y2920606D01*
X7450000Y2970606D02*
X7550000Y2970606D01*
X7500000Y2520606D02*
X7500000Y2420606D01*
X7450000Y2470606D02*
X7550000Y2470606D01*
X9500000Y3802500D02*
X9500000Y3702500D01*
X9450000Y3752500D02*
X9550000Y3752500D01*
X9500000Y3548500D02*
X9500000Y3448500D01*
X9450000Y3498500D02*
X9550000Y3498500D01*
X9500000Y3294500D02*
X9500000Y3194500D01*
X9450000Y3244500D02*
X9550000Y3244500D01*
D14*
X2138891Y5919109D02*
X2138891Y5996891D01*
X2061109Y5996891D01*
X2061109Y5919109D01*
X2138891Y5919109D01*
X2138891Y4903109D02*
X2138891Y4980891D01*
X2061109Y4980891D01*
X2061109Y4903109D01*
X2138891Y4903109D01*
X2138891Y3961109D02*
X2138891Y4038891D01*
X2061109Y4038891D01*
X2061109Y3961109D01*
X2138891Y3961109D01*
X2138891Y2945109D02*
X2138891Y3022891D01*
X2061109Y3022891D01*
X2061109Y2945109D01*
X2138891Y2945109D01*
X5578891Y5119109D02*
X5578891Y5196891D01*
X5501109Y5196891D01*
X5501109Y5119109D01*
X5578891Y5119109D01*
X5578891Y4865109D02*
X5578891Y4942891D01*
X5501109Y4942891D01*
X5501109Y4865109D01*
X5578891Y4865109D01*
X5578891Y4611109D02*
X5578891Y4688891D01*
X5501109Y4688891D01*
X5501109Y4611109D01*
X5578891Y4611109D01*
X5578891Y2314109D02*
X5578891Y2391891D01*
X5501109Y2391891D01*
X5501109Y2314109D01*
X5578891Y2314109D01*
X5578891Y2060109D02*
X5578891Y2137891D01*
X5501109Y2137891D01*
X5501109Y2060109D01*
X5578891Y2060109D01*
X5578891Y1806109D02*
X5578891Y1883891D01*
X5501109Y1883891D01*
X5501109Y1806109D01*
X5578891Y1806109D01*
X6522891Y1661109D02*
X6522891Y1738891D01*
X6445109Y1738891D01*
X6445109Y1661109D01*
X6522891Y1661109D01*
X6530891Y5261109D02*
X6530891Y5338891D01*
X6453109Y5338891D01*
X6453109Y5261109D01*
X6530891Y5261109D01*
X7538891Y1661109D02*
X7538891Y1738891D01*
X7461109Y1738891D01*
X7461109Y1661109D01*
X7538891Y1661109D01*
X7546891Y5261109D02*
X7546891Y5338891D01*
X7469109Y5338891D01*
X7469109Y5261109D01*
X7546891Y5261109D01*
X8388891Y5119109D02*
X8388891Y5196891D01*
X8311109Y5196891D01*
X8311109Y5119109D01*
X8388891Y5119109D01*
X8388891Y4103109D02*
X8388891Y4180891D01*
X8311109Y4180891D01*
X8311109Y4103109D01*
X8388891Y4103109D01*
X8388891Y2811109D02*
X8388891Y2888891D01*
X8311109Y2888891D01*
X8311109Y2811109D01*
X8388891Y2811109D01*
X8388891Y1795109D02*
X8388891Y1872891D01*
X8311109Y1872891D01*
X8311109Y1795109D01*
X8388891Y1795109D01*
D15*
X3500000Y4860914D02*
X3560000Y4920914D01*
X3500000Y4980914D01*
X3440000Y4920914D01*
X3500000Y4860914D01*
X3500000Y4110914D02*
X3560000Y4170914D01*
X3500000Y4230914D01*
X3440000Y4170914D01*
X3500000Y4110914D01*
X3500000Y2772652D02*
X3560000Y2832652D01*
X3500000Y2892652D01*
X3440000Y2832652D01*
X3500000Y2772652D01*
X3500000Y2022652D02*
X3560000Y2082652D01*
X3500000Y2142652D01*
X3440000Y2082652D01*
X3500000Y2022652D01*
D16*
X1555000Y6570000D02*
X1695000Y6430000D01*
X1695000Y6570000D02*
X1555000Y6430000D01*
X1695000Y6500000D02*
G75*
G03*
X1695000Y6500000I-70000J0D01*
G01*
X1555000Y570000D02*
X1695000Y430000D01*
X1695000Y570000D02*
X1555000Y430000D01*
X1695000Y500000D02*
G75*
G03*
X1695000Y500000I-70000J0D01*
G01*
X2430000Y1270000D02*
X2570000Y1130000D01*
X2570000Y1270000D02*
X2430000Y1130000D01*
X2570000Y1200000D02*
G75*
G03*
X2570000Y1200000I-70000J0D01*
G01*
X2455000Y5870000D02*
X2595000Y5730000D01*
X2595000Y5870000D02*
X2455000Y5730000D01*
X2595000Y5800000D02*
G75*
G03*
X2595000Y5800000I-70000J0D01*
G01*
X3555000Y6570000D02*
X3695000Y6430000D01*
X3695000Y6570000D02*
X3555000Y6430000D01*
X3695000Y6500000D02*
G75*
G03*
X3695000Y6500000I-70000J0D01*
G01*
X3555000Y570000D02*
X3695000Y430000D01*
X3695000Y570000D02*
X3555000Y430000D01*
X3695000Y500000D02*
G75*
G03*
X3695000Y500000I-70000J0D01*
G01*
X3955000Y6570000D02*
X4095000Y6430000D01*
X4095000Y6570000D02*
X3955000Y6430000D01*
X4095000Y6500000D02*
G75*
G03*
X4095000Y6500000I-70000J0D01*
G01*
X3955000Y570000D02*
X4095000Y430000D01*
X4095000Y570000D02*
X3955000Y430000D01*
X4095000Y500000D02*
G75*
G03*
X4095000Y500000I-70000J0D01*
G01*
X4430000Y1270000D02*
X4570000Y1130000D01*
X4570000Y1270000D02*
X4430000Y1130000D01*
X4570000Y1200000D02*
G75*
G03*
X4570000Y1200000I-70000J0D01*
G01*
X4455000Y5870000D02*
X4595000Y5730000D01*
X4595000Y5870000D02*
X4455000Y5730000D01*
X4595000Y5800000D02*
G75*
G03*
X4595000Y5800000I-70000J0D01*
G01*
X5955000Y6570000D02*
X6095000Y6430000D01*
X6095000Y6570000D02*
X5955000Y6430000D01*
X6095000Y6500000D02*
G75*
G03*
X6095000Y6500000I-70000J0D01*
G01*
X5955000Y570000D02*
X6095000Y430000D01*
X6095000Y570000D02*
X5955000Y430000D01*
X6095000Y500000D02*
G75*
G03*
X6095000Y500000I-70000J0D01*
G01*
D17*
X6520000Y6650000D02*
X6680000Y6490000D01*
X6680000Y6650000D02*
X6520000Y6490000D01*
X6600000Y6650000D02*
X6600000Y6490000D01*
X6520000Y6570000D02*
X6680000Y6570000D01*
X6520000Y6310000D02*
X6680000Y6150000D01*
X6680000Y6310000D02*
X6520000Y6150000D01*
X6600000Y6310000D02*
X6600000Y6150000D01*
X6520000Y6230000D02*
X6680000Y6230000D01*
X6520000Y850000D02*
X6680000Y690000D01*
X6680000Y850000D02*
X6520000Y690000D01*
X6600000Y850000D02*
X6600000Y690000D01*
X6520000Y770000D02*
X6680000Y770000D01*
X6520000Y510000D02*
X6680000Y350000D01*
X6680000Y510000D02*
X6520000Y350000D01*
X6600000Y510000D02*
X6600000Y350000D01*
X6520000Y430000D02*
X6680000Y430000D01*
X7870000Y6650000D02*
X8030000Y6490000D01*
X8030000Y6650000D02*
X7870000Y6490000D01*
X7950000Y6650000D02*
X7950000Y6490000D01*
X7870000Y6570000D02*
X8030000Y6570000D01*
X7870000Y6310000D02*
X8030000Y6150000D01*
X8030000Y6310000D02*
X7870000Y6150000D01*
X7950000Y6310000D02*
X7950000Y6150000D01*
X7870000Y6230000D02*
X8030000Y6230000D01*
X7870000Y850000D02*
X8030000Y690000D01*
X8030000Y850000D02*
X7870000Y690000D01*
X7950000Y850000D02*
X7950000Y690000D01*
X7870000Y770000D02*
X8030000Y770000D01*
X7870000Y510000D02*
X8030000Y350000D01*
X8030000Y510000D02*
X7870000Y350000D01*
X7950000Y510000D02*
X7950000Y350000D01*
X7870000Y430000D02*
X8030000Y430000D01*
D18*
X512500Y6487500D02*
X887500Y6112500D01*
X887500Y6487500D02*
X512500Y6112500D01*
X832584Y6167416D02*
X832584Y6432584D01*
X567416Y6432584D01*
X567416Y6167416D01*
X832584Y6167416D01*
X512500Y4687500D02*
X887500Y4312500D01*
X887500Y4687500D02*
X512500Y4312500D01*
X832584Y4367416D02*
X832584Y4632584D01*
X567416Y4632584D01*
X567416Y4367416D01*
X832584Y4367416D01*
X512500Y2687500D02*
X887500Y2312500D01*
X887500Y2687500D02*
X512500Y2312500D01*
X832584Y2367416D02*
X832584Y2632584D01*
X567416Y2632584D01*
X567416Y2367416D01*
X832584Y2367416D01*
X512500Y887500D02*
X887500Y512500D01*
X887500Y887500D02*
X512500Y512500D01*
X832584Y567416D02*
X832584Y832584D01*
X567416Y832584D01*
X567416Y567416D01*
X832584Y567416D01*
X9112500Y6487500D02*
X9487500Y6112500D01*
X9487500Y6487500D02*
X9112500Y6112500D01*
X9432584Y6167416D02*
X9432584Y6432584D01*
X9167416Y6432584D01*
X9167416Y6167416D01*
X9432584Y6167416D01*
X9112500Y887500D02*
X9487500Y512500D01*
X9487500Y887500D02*
X9112500Y512500D01*
X9432584Y567416D02*
X9432584Y832584D01*
X9167416Y832584D01*
X9167416Y567416D01*
X9432584Y567416D01*
D11*
X252619Y-315476D02*
X252619Y-115476D01*
X300238Y-115476D01*
X328810Y-125000D01*
X347857Y-144048D01*
X357381Y-163095D01*
X366905Y-201190D01*
X366905Y-229762D01*
X357381Y-267857D01*
X347857Y-286905D01*
X328810Y-305952D01*
X300238Y-315476D01*
X252619Y-315476D01*
X452619Y-315476D02*
X452619Y-182143D01*
X452619Y-220238D02*
X462143Y-201190D01*
X471667Y-191667D01*
X490714Y-182143D01*
X509762Y-182143D01*
X576429Y-315476D02*
X576429Y-182143D01*
X576429Y-115476D02*
X566905Y-125000D01*
X576429Y-134524D01*
X585952Y-125000D01*
X576429Y-115476D01*
X576429Y-134524D01*
X700238Y-315476D02*
X681190Y-305952D01*
X671667Y-286905D01*
X671667Y-115476D01*
X805000Y-315476D02*
X785952Y-305952D01*
X776428Y-286905D01*
X776428Y-115476D01*
X1033571Y-315476D02*
X1033571Y-115476D01*
X1100238Y-258333D01*
X1166905Y-115476D01*
X1166905Y-315476D01*
X1347857Y-315476D02*
X1347857Y-210714D01*
X1338333Y-191667D01*
X1319286Y-182143D01*
X1281190Y-182143D01*
X1262143Y-191667D01*
X1347857Y-305952D02*
X1328810Y-315476D01*
X1281190Y-315476D01*
X1262143Y-305952D01*
X1252619Y-286905D01*
X1252619Y-267857D01*
X1262143Y-248809D01*
X1281190Y-239286D01*
X1328810Y-239286D01*
X1347857Y-229762D01*
X1443095Y-182143D02*
X1443095Y-382143D01*
X1443095Y-191667D02*
X1462143Y-182143D01*
X1500238Y-182143D01*
X1519286Y-191667D01*
X1528809Y-201190D01*
X1538333Y-220238D01*
X1538333Y-277381D01*
X1528809Y-296429D01*
X1519286Y-305952D01*
X1500238Y-315476D01*
X1462143Y-315476D01*
X1443095Y-305952D01*
X1624048Y-296429D02*
X1633571Y-305952D01*
X1624048Y-315476D01*
X1614524Y-305952D01*
X1624048Y-296429D01*
X1624048Y-315476D01*
X1624048Y-191667D02*
X1633571Y-201190D01*
X1624048Y-210714D01*
X1614524Y-201190D01*
X1624048Y-191667D01*
X1624048Y-210714D01*
D12*
X-85000Y-605000D02*
X-5000Y-685000D01*
X-5000Y-605000D02*
X-85000Y-685000D01*
D11*
X290714Y-535476D02*
X309762Y-535476D01*
X328810Y-545000D01*
X338333Y-554524D01*
X347857Y-573571D01*
X357381Y-611667D01*
X357381Y-659286D01*
X347857Y-697381D01*
X338333Y-716428D01*
X328810Y-725952D01*
X309762Y-735476D01*
X290714Y-735476D01*
X271667Y-725952D01*
X262143Y-716428D01*
X252619Y-697381D01*
X243095Y-659286D01*
X243095Y-611667D01*
X252619Y-573571D01*
X262143Y-554524D01*
X271667Y-545000D01*
X290714Y-535476D01*
X443095Y-716428D02*
X452619Y-725952D01*
X443095Y-735476D01*
X433571Y-725952D01*
X443095Y-716428D01*
X443095Y-735476D01*
X566905Y-621190D02*
X547857Y-611667D01*
X538333Y-602143D01*
X528810Y-583095D01*
X528810Y-573571D01*
X538333Y-554524D01*
X547857Y-545000D01*
X566905Y-535476D01*
X605000Y-535476D01*
X624048Y-545000D01*
X633571Y-554524D01*
X643095Y-573571D01*
X643095Y-583095D01*
X633571Y-602143D01*
X624048Y-611667D01*
X605000Y-621190D01*
X566905Y-621190D01*
X547857Y-630714D01*
X538333Y-640238D01*
X528810Y-659286D01*
X528810Y-697381D01*
X538333Y-716428D01*
X547857Y-725952D01*
X566905Y-735476D01*
X605000Y-735476D01*
X624048Y-725952D01*
X633571Y-716428D01*
X643095Y-697381D01*
X643095Y-659286D01*
X633571Y-640238D01*
X624048Y-630714D01*
X605000Y-621190D01*
X766905Y-535476D02*
X785952Y-535476D01*
X805000Y-545000D01*
X814524Y-554524D01*
X824048Y-573571D01*
X833571Y-611667D01*
X833571Y-659286D01*
X824048Y-697381D01*
X814524Y-716428D01*
X805000Y-725952D01*
X785952Y-735476D01*
X766905Y-735476D01*
X747857Y-725952D01*
X738333Y-716428D01*
X728809Y-697381D01*
X719286Y-659286D01*
X719286Y-611667D01*
X728809Y-573571D01*
X738333Y-554524D01*
X747857Y-545000D01*
X766905Y-535476D01*
X957381Y-535476D02*
X976428Y-535476D01*
X995476Y-545000D01*
X1005000Y-554524D01*
X1014524Y-573571D01*
X1024048Y-611667D01*
X1024048Y-659286D01*
X1014524Y-697381D01*
X1005000Y-716428D01*
X995476Y-725952D01*
X976428Y-735476D01*
X957381Y-735476D01*
X938333Y-725952D01*
X928809Y-716428D01*
X919286Y-697381D01*
X909762Y-659286D01*
X909762Y-611667D01*
X919286Y-573571D01*
X928809Y-554524D01*
X938333Y-545000D01*
X957381Y-535476D01*
X1109762Y-735476D02*
X1109762Y-602143D01*
X1109762Y-621190D02*
X1119286Y-611667D01*
X1138333Y-602143D01*
X1166905Y-602143D01*
X1185952Y-611667D01*
X1195476Y-630714D01*
X1195476Y-735476D01*
X1195476Y-630714D02*
X1205000Y-611667D01*
X1224048Y-602143D01*
X1252619Y-602143D01*
X1271667Y-611667D01*
X1281190Y-630714D01*
X1281190Y-735476D01*
X1376429Y-735476D02*
X1376429Y-602143D01*
X1376429Y-621190D02*
X1385952Y-611667D01*
X1405000Y-602143D01*
X1433571Y-602143D01*
X1452619Y-611667D01*
X1462143Y-630714D01*
X1462143Y-735476D01*
X1462143Y-630714D02*
X1471667Y-611667D01*
X1490714Y-602143D01*
X1519286Y-602143D01*
X1538333Y-611667D01*
X1547857Y-630714D01*
X1547857Y-735476D01*
X1938333Y-525952D02*
X1766905Y-783095D01*
X2195476Y-535476D02*
X2214524Y-535476D01*
X2233571Y-545000D01*
X2243095Y-554524D01*
X2252619Y-573571D01*
X2262143Y-611667D01*
X2262143Y-659286D01*
X2252619Y-697381D01*
X2243095Y-716428D01*
X2233571Y-725952D01*
X2214524Y-735476D01*
X2195476Y-735476D01*
X2176429Y-725952D01*
X2166905Y-716428D01*
X2157381Y-697381D01*
X2147857Y-659286D01*
X2147857Y-611667D01*
X2157381Y-573571D01*
X2166905Y-554524D01*
X2176429Y-545000D01*
X2195476Y-535476D01*
X2347857Y-716428D02*
X2357381Y-725952D01*
X2347857Y-735476D01*
X2338333Y-725952D01*
X2347857Y-716428D01*
X2347857Y-735476D01*
X2481190Y-535476D02*
X2500238Y-535476D01*
X2519286Y-545000D01*
X2528810Y-554524D01*
X2538333Y-573571D01*
X2547857Y-611667D01*
X2547857Y-659286D01*
X2538333Y-697381D01*
X2528810Y-716428D01*
X2519286Y-725952D01*
X2500238Y-735476D01*
X2481190Y-735476D01*
X2462143Y-725952D01*
X2452619Y-716428D01*
X2443095Y-697381D01*
X2433571Y-659286D01*
X2433571Y-611667D01*
X2443095Y-573571D01*
X2452619Y-554524D01*
X2462143Y-545000D01*
X2481190Y-535476D01*
X2614524Y-535476D02*
X2738333Y-535476D01*
X2671667Y-611667D01*
X2700238Y-611667D01*
X2719286Y-621190D01*
X2728810Y-630714D01*
X2738333Y-649762D01*
X2738333Y-697381D01*
X2728810Y-716428D01*
X2719286Y-725952D01*
X2700238Y-735476D01*
X2643095Y-735476D01*
X2624048Y-725952D01*
X2614524Y-716428D01*
X2928809Y-735476D02*
X2814524Y-735476D01*
X2871667Y-735476D02*
X2871667Y-535476D01*
X2852619Y-564048D01*
X2833571Y-583095D01*
X2814524Y-592619D01*
X3109762Y-535476D02*
X3014524Y-535476D01*
X3005000Y-630714D01*
X3014524Y-621190D01*
X3033571Y-611667D01*
X3081190Y-611667D01*
X3100238Y-621190D01*
X3109762Y-630714D01*
X3119286Y-649762D01*
X3119286Y-697381D01*
X3109762Y-716428D01*
X3100238Y-725952D01*
X3081190Y-735476D01*
X3033571Y-735476D01*
X3014524Y-725952D01*
X3005000Y-716428D01*
X3195476Y-535476D02*
X3195476Y-573571D01*
X3271667Y-535476D02*
X3271667Y-573571D01*
X3566905Y-811667D02*
X3557381Y-802143D01*
X3538333Y-773571D01*
X3528809Y-754524D01*
X3519286Y-725952D01*
X3509762Y-678333D01*
X3509762Y-640238D01*
X3519286Y-592619D01*
X3528809Y-564048D01*
X3538333Y-545000D01*
X3557381Y-516428D01*
X3566905Y-506905D01*
X3728809Y-602143D02*
X3728809Y-735476D01*
X3681190Y-525952D02*
X3633571Y-668810D01*
X3757381Y-668810D01*
X3985952Y-735476D02*
X3985952Y-535476D01*
X4071667Y-735476D02*
X4071667Y-630714D01*
X4062143Y-611667D01*
X4043095Y-602143D01*
X4014524Y-602143D01*
X3995476Y-611667D01*
X3985952Y-621190D01*
X4195476Y-735476D02*
X4176428Y-725952D01*
X4166905Y-716428D01*
X4157381Y-697381D01*
X4157381Y-640238D01*
X4166905Y-621190D01*
X4176428Y-611667D01*
X4195476Y-602143D01*
X4224048Y-602143D01*
X4243095Y-611667D01*
X4252619Y-621190D01*
X4262143Y-640238D01*
X4262143Y-697381D01*
X4252619Y-716428D01*
X4243095Y-725952D01*
X4224048Y-735476D01*
X4195476Y-735476D01*
X4376429Y-735476D02*
X4357381Y-725952D01*
X4347857Y-706905D01*
X4347857Y-535476D01*
X4528810Y-725952D02*
X4509762Y-735476D01*
X4471667Y-735476D01*
X4452619Y-725952D01*
X4443095Y-706905D01*
X4443095Y-630714D01*
X4452619Y-611667D01*
X4471667Y-602143D01*
X4509762Y-602143D01*
X4528810Y-611667D01*
X4538333Y-630714D01*
X4538333Y-649762D01*
X4443095Y-668810D01*
X4614524Y-725952D02*
X4633571Y-735476D01*
X4671667Y-735476D01*
X4690714Y-725952D01*
X4700238Y-706905D01*
X4700238Y-697381D01*
X4690714Y-678333D01*
X4671667Y-668810D01*
X4643095Y-668810D01*
X4624048Y-659286D01*
X4614524Y-640238D01*
X4614524Y-630714D01*
X4624048Y-611667D01*
X4643095Y-602143D01*
X4671667Y-602143D01*
X4690714Y-611667D01*
X4766905Y-811667D02*
X4776429Y-802143D01*
X4795476Y-773571D01*
X4805000Y-754524D01*
X4814524Y-725952D01*
X4824048Y-678333D01*
X4824048Y-640238D01*
X4814524Y-592619D01*
X4805000Y-564048D01*
X4795476Y-545000D01*
X4776429Y-516428D01*
X4766905Y-506905D01*
D13*
X-5000Y-909000D02*
G75*
G03*
X-5000Y-909000I-45000J0D01*
G01*
D11*
X290714Y-799476D02*
X309762Y-799476D01*
X328810Y-809000D01*
X338333Y-818524D01*
X347857Y-837571D01*
X357381Y-875667D01*
X357381Y-923286D01*
X347857Y-961381D01*
X338333Y-980428D01*
X328810Y-989952D01*
X309762Y-999476D01*
X290714Y-999476D01*
X271667Y-989952D01*
X262143Y-980428D01*
X252619Y-961381D01*
X243095Y-923286D01*
X243095Y-875667D01*
X252619Y-837571D01*
X262143Y-818524D01*
X271667Y-809000D01*
X290714Y-799476D01*
X443095Y-980428D02*
X452619Y-989952D01*
X443095Y-999476D01*
X433571Y-989952D01*
X443095Y-980428D01*
X443095Y-999476D01*
X547857Y-999476D02*
X585952Y-999476D01*
X605000Y-989952D01*
X614524Y-980428D01*
X633571Y-951857D01*
X643095Y-913762D01*
X643095Y-837571D01*
X633571Y-818524D01*
X624048Y-809000D01*
X605000Y-799476D01*
X566905Y-799476D01*
X547857Y-809000D01*
X538333Y-818524D01*
X528810Y-837571D01*
X528810Y-885190D01*
X538333Y-904238D01*
X547857Y-913762D01*
X566905Y-923286D01*
X605000Y-923286D01*
X624048Y-913762D01*
X633571Y-904238D01*
X643095Y-885190D01*
X766905Y-799476D02*
X785952Y-799476D01*
X805000Y-809000D01*
X814524Y-818524D01*
X824048Y-837571D01*
X833571Y-875667D01*
X833571Y-923286D01*
X824048Y-961381D01*
X814524Y-980428D01*
X805000Y-989952D01*
X785952Y-999476D01*
X766905Y-999476D01*
X747857Y-989952D01*
X738333Y-980428D01*
X728809Y-961381D01*
X719286Y-923286D01*
X719286Y-875667D01*
X728809Y-837571D01*
X738333Y-818524D01*
X747857Y-809000D01*
X766905Y-799476D01*
X957381Y-799476D02*
X976428Y-799476D01*
X995476Y-809000D01*
X1005000Y-818524D01*
X1014524Y-837571D01*
X1024048Y-875667D01*
X1024048Y-923286D01*
X1014524Y-961381D01*
X1005000Y-980428D01*
X995476Y-989952D01*
X976428Y-999476D01*
X957381Y-999476D01*
X938333Y-989952D01*
X928809Y-980428D01*
X919286Y-961381D01*
X909762Y-923286D01*
X909762Y-875667D01*
X919286Y-837571D01*
X928809Y-818524D01*
X938333Y-809000D01*
X957381Y-799476D01*
X1109762Y-999476D02*
X1109762Y-866143D01*
X1109762Y-885190D02*
X1119286Y-875667D01*
X1138333Y-866143D01*
X1166905Y-866143D01*
X1185952Y-875667D01*
X1195476Y-894714D01*
X1195476Y-999476D01*
X1195476Y-894714D02*
X1205000Y-875667D01*
X1224048Y-866143D01*
X1252619Y-866143D01*
X1271667Y-875667D01*
X1281190Y-894714D01*
X1281190Y-999476D01*
X1376429Y-999476D02*
X1376429Y-866143D01*
X1376429Y-885190D02*
X1385952Y-875667D01*
X1405000Y-866143D01*
X1433571Y-866143D01*
X1452619Y-875667D01*
X1462143Y-894714D01*
X1462143Y-999476D01*
X1462143Y-894714D02*
X1471667Y-875667D01*
X1490714Y-866143D01*
X1519286Y-866143D01*
X1538333Y-875667D01*
X1547857Y-894714D01*
X1547857Y-999476D01*
X1938333Y-789952D02*
X1766905Y-1047095D01*
X2195476Y-799476D02*
X2214524Y-799476D01*
X2233571Y-809000D01*
X2243095Y-818524D01*
X2252619Y-837571D01*
X2262143Y-875667D01*
X2262143Y-923286D01*
X2252619Y-961381D01*
X2243095Y-980428D01*
X2233571Y-989952D01*
X2214524Y-999476D01*
X2195476Y-999476D01*
X2176429Y-989952D01*
X2166905Y-980428D01*
X2157381Y-961381D01*
X2147857Y-923286D01*
X2147857Y-875667D01*
X2157381Y-837571D01*
X2166905Y-818524D01*
X2176429Y-809000D01*
X2195476Y-799476D01*
X2347857Y-980428D02*
X2357381Y-989952D01*
X2347857Y-999476D01*
X2338333Y-989952D01*
X2347857Y-980428D01*
X2347857Y-999476D01*
X2481190Y-799476D02*
X2500238Y-799476D01*
X2519286Y-809000D01*
X2528810Y-818524D01*
X2538333Y-837571D01*
X2547857Y-875667D01*
X2547857Y-923286D01*
X2538333Y-961381D01*
X2528810Y-980428D01*
X2519286Y-989952D01*
X2500238Y-999476D01*
X2481190Y-999476D01*
X2462143Y-989952D01*
X2452619Y-980428D01*
X2443095Y-961381D01*
X2433571Y-923286D01*
X2433571Y-875667D01*
X2443095Y-837571D01*
X2452619Y-818524D01*
X2462143Y-809000D01*
X2481190Y-799476D01*
X2614524Y-799476D02*
X2738333Y-799476D01*
X2671667Y-875667D01*
X2700238Y-875667D01*
X2719286Y-885190D01*
X2728810Y-894714D01*
X2738333Y-913762D01*
X2738333Y-961381D01*
X2728810Y-980428D01*
X2719286Y-989952D01*
X2700238Y-999476D01*
X2643095Y-999476D01*
X2624048Y-989952D01*
X2614524Y-980428D01*
X2919286Y-799476D02*
X2824048Y-799476D01*
X2814524Y-894714D01*
X2824048Y-885190D01*
X2843095Y-875667D01*
X2890714Y-875667D01*
X2909762Y-885190D01*
X2919286Y-894714D01*
X2928809Y-913762D01*
X2928809Y-961381D01*
X2919286Y-980428D01*
X2909762Y-989952D01*
X2890714Y-999476D01*
X2843095Y-999476D01*
X2824048Y-989952D01*
X2814524Y-980428D01*
X3100238Y-866143D02*
X3100238Y-999476D01*
X3052619Y-789952D02*
X3005000Y-932809D01*
X3128809Y-932809D01*
X3195476Y-799476D02*
X3195476Y-837571D01*
X3271667Y-799476D02*
X3271667Y-837571D01*
X3566905Y-1075667D02*
X3557381Y-1066143D01*
X3538333Y-1037571D01*
X3528809Y-1018524D01*
X3519286Y-989952D01*
X3509762Y-942333D01*
X3509762Y-904238D01*
X3519286Y-856619D01*
X3528809Y-828048D01*
X3538333Y-809000D01*
X3557381Y-780428D01*
X3566905Y-770905D01*
X3728809Y-866143D02*
X3728809Y-999476D01*
X3681190Y-789952D02*
X3633571Y-932809D01*
X3757381Y-932809D01*
X3985952Y-999476D02*
X3985952Y-799476D01*
X4071667Y-999476D02*
X4071667Y-894714D01*
X4062143Y-875667D01*
X4043095Y-866143D01*
X4014524Y-866143D01*
X3995476Y-875667D01*
X3985952Y-885190D01*
X4195476Y-999476D02*
X4176428Y-989952D01*
X4166905Y-980428D01*
X4157381Y-961381D01*
X4157381Y-904238D01*
X4166905Y-885190D01*
X4176428Y-875667D01*
X4195476Y-866143D01*
X4224048Y-866143D01*
X4243095Y-875667D01*
X4252619Y-885190D01*
X4262143Y-904238D01*
X4262143Y-961381D01*
X4252619Y-980428D01*
X4243095Y-989952D01*
X4224048Y-999476D01*
X4195476Y-999476D01*
X4376429Y-999476D02*
X4357381Y-989952D01*
X4347857Y-970905D01*
X4347857Y-799476D01*
X4528810Y-989952D02*
X4509762Y-999476D01*
X4471667Y-999476D01*
X4452619Y-989952D01*
X4443095Y-970905D01*
X4443095Y-894714D01*
X4452619Y-875667D01*
X4471667Y-866143D01*
X4509762Y-866143D01*
X4528810Y-875667D01*
X4538333Y-894714D01*
X4538333Y-913762D01*
X4443095Y-932809D01*
X4614524Y-989952D02*
X4633571Y-999476D01*
X4671667Y-999476D01*
X4690714Y-989952D01*
X4700238Y-970905D01*
X4700238Y-961381D01*
X4690714Y-942333D01*
X4671667Y-932809D01*
X4643095Y-932809D01*
X4624048Y-923286D01*
X4614524Y-904238D01*
X4614524Y-894714D01*
X4624048Y-875667D01*
X4643095Y-866143D01*
X4671667Y-866143D01*
X4690714Y-875667D01*
X4766905Y-1075667D02*
X4776429Y-1066143D01*
X4795476Y-1037571D01*
X4805000Y-1018524D01*
X4814524Y-989952D01*
X4824048Y-942333D01*
X4824048Y-904238D01*
X4814524Y-856619D01*
X4805000Y-828048D01*
X4795476Y-809000D01*
X4776429Y-780428D01*
X4766905Y-770905D01*
D10*
X-55000Y-1123000D02*
X-55000Y-1223000D01*
X-105000Y-1173000D02*
X-5000Y-1173000D01*
D11*
X357381Y-1263476D02*
X243095Y-1263476D01*
X300238Y-1263476D02*
X300238Y-1063476D01*
X281190Y-1092048D01*
X262143Y-1111095D01*
X243095Y-1120619D01*
X443095Y-1244429D02*
X452619Y-1253952D01*
X443095Y-1263476D01*
X433571Y-1253952D01*
X443095Y-1244429D01*
X443095Y-1263476D01*
X576429Y-1063476D02*
X595476Y-1063476D01*
X614524Y-1073000D01*
X624048Y-1082524D01*
X633571Y-1101571D01*
X643095Y-1139667D01*
X643095Y-1187286D01*
X633571Y-1225381D01*
X624048Y-1244429D01*
X614524Y-1253952D01*
X595476Y-1263476D01*
X576429Y-1263476D01*
X557381Y-1253952D01*
X547857Y-1244429D01*
X538333Y-1225381D01*
X528810Y-1187286D01*
X528810Y-1139667D01*
X538333Y-1101571D01*
X547857Y-1082524D01*
X557381Y-1073000D01*
X576429Y-1063476D01*
X766905Y-1063476D02*
X785952Y-1063476D01*
X805000Y-1073000D01*
X814524Y-1082524D01*
X824048Y-1101571D01*
X833571Y-1139667D01*
X833571Y-1187286D01*
X824048Y-1225381D01*
X814524Y-1244429D01*
X805000Y-1253952D01*
X785952Y-1263476D01*
X766905Y-1263476D01*
X747857Y-1253952D01*
X738333Y-1244429D01*
X728809Y-1225381D01*
X719286Y-1187286D01*
X719286Y-1139667D01*
X728809Y-1101571D01*
X738333Y-1082524D01*
X747857Y-1073000D01*
X766905Y-1063476D01*
X957381Y-1063476D02*
X976428Y-1063476D01*
X995476Y-1073000D01*
X1005000Y-1082524D01*
X1014524Y-1101571D01*
X1024048Y-1139667D01*
X1024048Y-1187286D01*
X1014524Y-1225381D01*
X1005000Y-1244429D01*
X995476Y-1253952D01*
X976428Y-1263476D01*
X957381Y-1263476D01*
X938333Y-1253952D01*
X928809Y-1244429D01*
X919286Y-1225381D01*
X909762Y-1187286D01*
X909762Y-1139667D01*
X919286Y-1101571D01*
X928809Y-1082524D01*
X938333Y-1073000D01*
X957381Y-1063476D01*
X1109762Y-1263476D02*
X1109762Y-1130143D01*
X1109762Y-1149190D02*
X1119286Y-1139667D01*
X1138333Y-1130143D01*
X1166905Y-1130143D01*
X1185952Y-1139667D01*
X1195476Y-1158714D01*
X1195476Y-1263476D01*
X1195476Y-1158714D02*
X1205000Y-1139667D01*
X1224048Y-1130143D01*
X1252619Y-1130143D01*
X1271667Y-1139667D01*
X1281190Y-1158714D01*
X1281190Y-1263476D01*
X1376429Y-1263476D02*
X1376429Y-1130143D01*
X1376429Y-1149190D02*
X1385952Y-1139667D01*
X1405000Y-1130143D01*
X1433571Y-1130143D01*
X1452619Y-1139667D01*
X1462143Y-1158714D01*
X1462143Y-1263476D01*
X1462143Y-1158714D02*
X1471667Y-1139667D01*
X1490714Y-1130143D01*
X1519286Y-1130143D01*
X1538333Y-1139667D01*
X1547857Y-1158714D01*
X1547857Y-1263476D01*
X1938333Y-1053952D02*
X1766905Y-1311095D01*
X2195476Y-1063476D02*
X2214524Y-1063476D01*
X2233571Y-1073000D01*
X2243095Y-1082524D01*
X2252619Y-1101571D01*
X2262143Y-1139667D01*
X2262143Y-1187286D01*
X2252619Y-1225381D01*
X2243095Y-1244429D01*
X2233571Y-1253952D01*
X2214524Y-1263476D01*
X2195476Y-1263476D01*
X2176429Y-1253952D01*
X2166905Y-1244429D01*
X2157381Y-1225381D01*
X2147857Y-1187286D01*
X2147857Y-1139667D01*
X2157381Y-1101571D01*
X2166905Y-1082524D01*
X2176429Y-1073000D01*
X2195476Y-1063476D01*
X2347857Y-1244429D02*
X2357381Y-1253952D01*
X2347857Y-1263476D01*
X2338333Y-1253952D01*
X2347857Y-1244429D01*
X2347857Y-1263476D01*
X2481190Y-1063476D02*
X2500238Y-1063476D01*
X2519286Y-1073000D01*
X2528810Y-1082524D01*
X2538333Y-1101571D01*
X2547857Y-1139667D01*
X2547857Y-1187286D01*
X2538333Y-1225381D01*
X2528810Y-1244429D01*
X2519286Y-1253952D01*
X2500238Y-1263476D01*
X2481190Y-1263476D01*
X2462143Y-1253952D01*
X2452619Y-1244429D01*
X2443095Y-1225381D01*
X2433571Y-1187286D01*
X2433571Y-1139667D01*
X2443095Y-1101571D01*
X2452619Y-1082524D01*
X2462143Y-1073000D01*
X2481190Y-1063476D01*
X2614524Y-1063476D02*
X2738333Y-1063476D01*
X2671667Y-1139667D01*
X2700238Y-1139667D01*
X2719286Y-1149190D01*
X2728810Y-1158714D01*
X2738333Y-1177762D01*
X2738333Y-1225381D01*
X2728810Y-1244429D01*
X2719286Y-1253952D01*
X2700238Y-1263476D01*
X2643095Y-1263476D01*
X2624048Y-1253952D01*
X2614524Y-1244429D01*
X2833571Y-1263476D02*
X2871667Y-1263476D01*
X2890714Y-1253952D01*
X2900238Y-1244429D01*
X2919286Y-1215857D01*
X2928809Y-1177762D01*
X2928809Y-1101571D01*
X2919286Y-1082524D01*
X2909762Y-1073000D01*
X2890714Y-1063476D01*
X2852619Y-1063476D01*
X2833571Y-1073000D01*
X2824048Y-1082524D01*
X2814524Y-1101571D01*
X2814524Y-1149190D01*
X2824048Y-1168238D01*
X2833571Y-1177762D01*
X2852619Y-1187286D01*
X2890714Y-1187286D01*
X2909762Y-1177762D01*
X2919286Y-1168238D01*
X2928809Y-1149190D01*
X3100238Y-1130143D02*
X3100238Y-1263476D01*
X3052619Y-1053952D02*
X3005000Y-1196810D01*
X3128809Y-1196810D01*
X3195476Y-1063476D02*
X3195476Y-1101571D01*
X3271667Y-1063476D02*
X3271667Y-1101571D01*
X3566905Y-1339667D02*
X3557381Y-1330143D01*
X3538333Y-1301571D01*
X3528809Y-1282524D01*
X3519286Y-1253952D01*
X3509762Y-1206333D01*
X3509762Y-1168238D01*
X3519286Y-1120619D01*
X3528809Y-1092048D01*
X3538333Y-1073000D01*
X3557381Y-1044428D01*
X3566905Y-1034905D01*
X3624048Y-1063476D02*
X3757381Y-1063476D01*
X3671667Y-1263476D01*
X3985952Y-1263476D02*
X3985952Y-1063476D01*
X4071667Y-1263476D02*
X4071667Y-1158714D01*
X4062143Y-1139667D01*
X4043095Y-1130143D01*
X4014524Y-1130143D01*
X3995476Y-1139667D01*
X3985952Y-1149190D01*
X4195476Y-1263476D02*
X4176428Y-1253952D01*
X4166905Y-1244429D01*
X4157381Y-1225381D01*
X4157381Y-1168238D01*
X4166905Y-1149190D01*
X4176428Y-1139667D01*
X4195476Y-1130143D01*
X4224048Y-1130143D01*
X4243095Y-1139667D01*
X4252619Y-1149190D01*
X4262143Y-1168238D01*
X4262143Y-1225381D01*
X4252619Y-1244429D01*
X4243095Y-1253952D01*
X4224048Y-1263476D01*
X4195476Y-1263476D01*
X4376429Y-1263476D02*
X4357381Y-1253952D01*
X4347857Y-1234905D01*
X4347857Y-1063476D01*
X4528810Y-1253952D02*
X4509762Y-1263476D01*
X4471667Y-1263476D01*
X4452619Y-1253952D01*
X4443095Y-1234905D01*
X4443095Y-1158714D01*
X4452619Y-1139667D01*
X4471667Y-1130143D01*
X4509762Y-1130143D01*
X4528810Y-1139667D01*
X4538333Y-1158714D01*
X4538333Y-1177762D01*
X4443095Y-1196810D01*
X4614524Y-1253952D02*
X4633571Y-1263476D01*
X4671667Y-1263476D01*
X4690714Y-1253952D01*
X4700238Y-1234905D01*
X4700238Y-1225381D01*
X4690714Y-1206333D01*
X4671667Y-1196810D01*
X4643095Y-1196810D01*
X4624048Y-1187286D01*
X4614524Y-1168238D01*
X4614524Y-1158714D01*
X4624048Y-1139667D01*
X4643095Y-1130143D01*
X4671667Y-1130143D01*
X4690714Y-1139667D01*
X4766905Y-1339667D02*
X4776429Y-1330143D01*
X4795476Y-1301571D01*
X4805000Y-1282524D01*
X4814524Y-1253952D01*
X4824048Y-1206333D01*
X4824048Y-1168238D01*
X4814524Y-1120619D01*
X4805000Y-1092048D01*
X4795476Y-1073000D01*
X4776429Y-1044428D01*
X4766905Y-1034905D01*
D14*
X-21109Y-1475891D02*
X-21109Y-1398109D01*
X-98891Y-1398109D01*
X-98891Y-1475891D01*
X-21109Y-1475891D01*
D11*
X357381Y-1527476D02*
X243095Y-1527476D01*
X300238Y-1527476D02*
X300238Y-1327476D01*
X281190Y-1356048D01*
X262143Y-1375095D01*
X243095Y-1384619D01*
X443095Y-1508428D02*
X452619Y-1517952D01*
X443095Y-1527476D01*
X433571Y-1517952D01*
X443095Y-1508428D01*
X443095Y-1527476D01*
X643095Y-1527476D02*
X528810Y-1527476D01*
X585952Y-1527476D02*
X585952Y-1327476D01*
X566905Y-1356048D01*
X547857Y-1375095D01*
X528810Y-1384619D01*
X766905Y-1327476D02*
X785952Y-1327476D01*
X805000Y-1337000D01*
X814524Y-1346524D01*
X824048Y-1365571D01*
X833571Y-1403667D01*
X833571Y-1451286D01*
X824048Y-1489381D01*
X814524Y-1508428D01*
X805000Y-1517952D01*
X785952Y-1527476D01*
X766905Y-1527476D01*
X747857Y-1517952D01*
X738333Y-1508428D01*
X728809Y-1489381D01*
X719286Y-1451286D01*
X719286Y-1403667D01*
X728809Y-1365571D01*
X738333Y-1346524D01*
X747857Y-1337000D01*
X766905Y-1327476D01*
X957381Y-1327476D02*
X976428Y-1327476D01*
X995476Y-1337000D01*
X1005000Y-1346524D01*
X1014524Y-1365571D01*
X1024048Y-1403667D01*
X1024048Y-1451286D01*
X1014524Y-1489381D01*
X1005000Y-1508428D01*
X995476Y-1517952D01*
X976428Y-1527476D01*
X957381Y-1527476D01*
X938333Y-1517952D01*
X928809Y-1508428D01*
X919286Y-1489381D01*
X909762Y-1451286D01*
X909762Y-1403667D01*
X919286Y-1365571D01*
X928809Y-1346524D01*
X938333Y-1337000D01*
X957381Y-1327476D01*
X1109762Y-1527476D02*
X1109762Y-1394143D01*
X1109762Y-1413190D02*
X1119286Y-1403667D01*
X1138333Y-1394143D01*
X1166905Y-1394143D01*
X1185952Y-1403667D01*
X1195476Y-1422714D01*
X1195476Y-1527476D01*
X1195476Y-1422714D02*
X1205000Y-1403667D01*
X1224048Y-1394143D01*
X1252619Y-1394143D01*
X1271667Y-1403667D01*
X1281190Y-1422714D01*
X1281190Y-1527476D01*
X1376429Y-1527476D02*
X1376429Y-1394143D01*
X1376429Y-1413190D02*
X1385952Y-1403667D01*
X1405000Y-1394143D01*
X1433571Y-1394143D01*
X1452619Y-1403667D01*
X1462143Y-1422714D01*
X1462143Y-1527476D01*
X1462143Y-1422714D02*
X1471667Y-1403667D01*
X1490714Y-1394143D01*
X1519286Y-1394143D01*
X1538333Y-1403667D01*
X1547857Y-1422714D01*
X1547857Y-1527476D01*
X1938333Y-1317952D02*
X1766905Y-1575095D01*
X2195476Y-1327476D02*
X2214524Y-1327476D01*
X2233571Y-1337000D01*
X2243095Y-1346524D01*
X2252619Y-1365571D01*
X2262143Y-1403667D01*
X2262143Y-1451286D01*
X2252619Y-1489381D01*
X2243095Y-1508428D01*
X2233571Y-1517952D01*
X2214524Y-1527476D01*
X2195476Y-1527476D01*
X2176429Y-1517952D01*
X2166905Y-1508428D01*
X2157381Y-1489381D01*
X2147857Y-1451286D01*
X2147857Y-1403667D01*
X2157381Y-1365571D01*
X2166905Y-1346524D01*
X2176429Y-1337000D01*
X2195476Y-1327476D01*
X2347857Y-1508428D02*
X2357381Y-1517952D01*
X2347857Y-1527476D01*
X2338333Y-1517952D01*
X2347857Y-1508428D01*
X2347857Y-1527476D01*
X2481190Y-1327476D02*
X2500238Y-1327476D01*
X2519286Y-1337000D01*
X2528810Y-1346524D01*
X2538333Y-1365571D01*
X2547857Y-1403667D01*
X2547857Y-1451286D01*
X2538333Y-1489381D01*
X2528810Y-1508428D01*
X2519286Y-1517952D01*
X2500238Y-1527476D01*
X2481190Y-1527476D01*
X2462143Y-1517952D01*
X2452619Y-1508428D01*
X2443095Y-1489381D01*
X2433571Y-1451286D01*
X2433571Y-1403667D01*
X2443095Y-1365571D01*
X2452619Y-1346524D01*
X2462143Y-1337000D01*
X2481190Y-1327476D01*
X2719286Y-1394143D02*
X2719286Y-1527476D01*
X2671667Y-1317952D02*
X2624048Y-1460809D01*
X2747857Y-1460809D01*
X2805000Y-1327476D02*
X2928809Y-1327476D01*
X2862143Y-1403667D01*
X2890714Y-1403667D01*
X2909762Y-1413190D01*
X2919286Y-1422714D01*
X2928809Y-1441762D01*
X2928809Y-1489381D01*
X2919286Y-1508428D01*
X2909762Y-1517952D01*
X2890714Y-1527476D01*
X2833571Y-1527476D01*
X2814524Y-1517952D01*
X2805000Y-1508428D01*
X2995476Y-1327476D02*
X3119286Y-1327476D01*
X3052619Y-1403667D01*
X3081190Y-1403667D01*
X3100238Y-1413190D01*
X3109762Y-1422714D01*
X3119286Y-1441762D01*
X3119286Y-1489381D01*
X3109762Y-1508428D01*
X3100238Y-1517952D01*
X3081190Y-1527476D01*
X3024048Y-1527476D01*
X3005000Y-1517952D01*
X2995476Y-1508428D01*
X3195476Y-1327476D02*
X3195476Y-1365571D01*
X3271667Y-1327476D02*
X3271667Y-1365571D01*
X3566905Y-1603667D02*
X3557381Y-1594143D01*
X3538333Y-1565571D01*
X3528809Y-1546524D01*
X3519286Y-1517952D01*
X3509762Y-1470333D01*
X3509762Y-1432238D01*
X3519286Y-1384619D01*
X3528809Y-1356048D01*
X3538333Y-1337000D01*
X3557381Y-1308429D01*
X3566905Y-1298905D01*
X3747857Y-1527476D02*
X3633571Y-1527476D01*
X3690714Y-1527476D02*
X3690714Y-1327476D01*
X3671667Y-1356048D01*
X3652619Y-1375095D01*
X3633571Y-1384619D01*
X3862143Y-1413190D02*
X3843095Y-1403667D01*
X3833571Y-1394143D01*
X3824048Y-1375095D01*
X3824048Y-1365571D01*
X3833571Y-1346524D01*
X3843095Y-1337000D01*
X3862143Y-1327476D01*
X3900238Y-1327476D01*
X3919286Y-1337000D01*
X3928809Y-1346524D01*
X3938333Y-1365571D01*
X3938333Y-1375095D01*
X3928809Y-1394143D01*
X3919286Y-1403667D01*
X3900238Y-1413190D01*
X3862143Y-1413190D01*
X3843095Y-1422714D01*
X3833571Y-1432238D01*
X3824048Y-1451286D01*
X3824048Y-1489381D01*
X3833571Y-1508428D01*
X3843095Y-1517952D01*
X3862143Y-1527476D01*
X3900238Y-1527476D01*
X3919286Y-1517952D01*
X3928809Y-1508428D01*
X3938333Y-1489381D01*
X3938333Y-1451286D01*
X3928809Y-1432238D01*
X3919286Y-1422714D01*
X3900238Y-1413190D01*
X4176428Y-1527476D02*
X4176428Y-1327476D01*
X4262143Y-1527476D02*
X4262143Y-1422714D01*
X4252619Y-1403667D01*
X4233571Y-1394143D01*
X4205000Y-1394143D01*
X4185952Y-1403667D01*
X4176428Y-1413190D01*
X4385952Y-1527476D02*
X4366905Y-1517952D01*
X4357381Y-1508428D01*
X4347857Y-1489381D01*
X4347857Y-1432238D01*
X4357381Y-1413190D01*
X4366905Y-1403667D01*
X4385952Y-1394143D01*
X4414524Y-1394143D01*
X4433571Y-1403667D01*
X4443095Y-1413190D01*
X4452619Y-1432238D01*
X4452619Y-1489381D01*
X4443095Y-1508428D01*
X4433571Y-1517952D01*
X4414524Y-1527476D01*
X4385952Y-1527476D01*
X4566905Y-1527476D02*
X4547857Y-1517952D01*
X4538333Y-1498905D01*
X4538333Y-1327476D01*
X4719286Y-1517952D02*
X4700238Y-1527476D01*
X4662143Y-1527476D01*
X4643095Y-1517952D01*
X4633571Y-1498905D01*
X4633571Y-1422714D01*
X4643095Y-1403667D01*
X4662143Y-1394143D01*
X4700238Y-1394143D01*
X4719286Y-1403667D01*
X4728810Y-1422714D01*
X4728810Y-1441762D01*
X4633571Y-1460809D01*
X4805000Y-1517952D02*
X4824048Y-1527476D01*
X4862143Y-1527476D01*
X4881190Y-1517952D01*
X4890714Y-1498905D01*
X4890714Y-1489381D01*
X4881190Y-1470333D01*
X4862143Y-1460809D01*
X4833571Y-1460809D01*
X4814524Y-1451286D01*
X4805000Y-1432238D01*
X4805000Y-1422714D01*
X4814524Y-1403667D01*
X4833571Y-1394143D01*
X4862143Y-1394143D01*
X4881190Y-1403667D01*
X4957381Y-1603667D02*
X4966905Y-1594143D01*
X4985952Y-1565571D01*
X4995476Y-1546524D01*
X5005000Y-1517952D01*
X5014524Y-1470333D01*
X5014524Y-1432238D01*
X5005000Y-1384619D01*
X4995476Y-1356048D01*
X4985952Y-1337000D01*
X4966905Y-1308429D01*
X4957381Y-1298905D01*
D15*
X-65000Y-1761000D02*
X-5000Y-1701000D01*
X-65000Y-1641000D01*
X-125000Y-1701000D01*
X-65000Y-1761000D01*
D11*
X357381Y-1791476D02*
X243095Y-1791476D01*
X300238Y-1791476D02*
X300238Y-1591476D01*
X281190Y-1620048D01*
X262143Y-1639095D01*
X243095Y-1648619D01*
X443095Y-1772428D02*
X452619Y-1781952D01*
X443095Y-1791476D01*
X433571Y-1781952D01*
X443095Y-1772428D01*
X443095Y-1791476D01*
X528810Y-1610524D02*
X538333Y-1601000D01*
X557381Y-1591476D01*
X605000Y-1591476D01*
X624048Y-1601000D01*
X633571Y-1610524D01*
X643095Y-1629571D01*
X643095Y-1648619D01*
X633571Y-1677190D01*
X519286Y-1791476D01*
X643095Y-1791476D01*
X766905Y-1591476D02*
X785952Y-1591476D01*
X805000Y-1601000D01*
X814524Y-1610524D01*
X824048Y-1629571D01*
X833571Y-1667667D01*
X833571Y-1715286D01*
X824048Y-1753381D01*
X814524Y-1772428D01*
X805000Y-1781952D01*
X785952Y-1791476D01*
X766905Y-1791476D01*
X747857Y-1781952D01*
X738333Y-1772428D01*
X728809Y-1753381D01*
X719286Y-1715286D01*
X719286Y-1667667D01*
X728809Y-1629571D01*
X738333Y-1610524D01*
X747857Y-1601000D01*
X766905Y-1591476D01*
X957381Y-1591476D02*
X976428Y-1591476D01*
X995476Y-1601000D01*
X1005000Y-1610524D01*
X1014524Y-1629571D01*
X1024048Y-1667667D01*
X1024048Y-1715286D01*
X1014524Y-1753381D01*
X1005000Y-1772428D01*
X995476Y-1781952D01*
X976428Y-1791476D01*
X957381Y-1791476D01*
X938333Y-1781952D01*
X928809Y-1772428D01*
X919286Y-1753381D01*
X909762Y-1715286D01*
X909762Y-1667667D01*
X919286Y-1629571D01*
X928809Y-1610524D01*
X938333Y-1601000D01*
X957381Y-1591476D01*
X1109762Y-1791476D02*
X1109762Y-1658143D01*
X1109762Y-1677190D02*
X1119286Y-1667667D01*
X1138333Y-1658143D01*
X1166905Y-1658143D01*
X1185952Y-1667667D01*
X1195476Y-1686714D01*
X1195476Y-1791476D01*
X1195476Y-1686714D02*
X1205000Y-1667667D01*
X1224048Y-1658143D01*
X1252619Y-1658143D01*
X1271667Y-1667667D01*
X1281190Y-1686714D01*
X1281190Y-1791476D01*
X1376429Y-1791476D02*
X1376429Y-1658143D01*
X1376429Y-1677190D02*
X1385952Y-1667667D01*
X1405000Y-1658143D01*
X1433571Y-1658143D01*
X1452619Y-1667667D01*
X1462143Y-1686714D01*
X1462143Y-1791476D01*
X1462143Y-1686714D02*
X1471667Y-1667667D01*
X1490714Y-1658143D01*
X1519286Y-1658143D01*
X1538333Y-1667667D01*
X1547857Y-1686714D01*
X1547857Y-1791476D01*
X1938333Y-1581952D02*
X1766905Y-1839095D01*
X2195476Y-1591476D02*
X2214524Y-1591476D01*
X2233571Y-1601000D01*
X2243095Y-1610524D01*
X2252619Y-1629571D01*
X2262143Y-1667667D01*
X2262143Y-1715286D01*
X2252619Y-1753381D01*
X2243095Y-1772428D01*
X2233571Y-1781952D01*
X2214524Y-1791476D01*
X2195476Y-1791476D01*
X2176429Y-1781952D01*
X2166905Y-1772428D01*
X2157381Y-1753381D01*
X2147857Y-1715286D01*
X2147857Y-1667667D01*
X2157381Y-1629571D01*
X2166905Y-1610524D01*
X2176429Y-1601000D01*
X2195476Y-1591476D01*
X2347857Y-1772428D02*
X2357381Y-1781952D01*
X2347857Y-1791476D01*
X2338333Y-1781952D01*
X2347857Y-1772428D01*
X2347857Y-1791476D01*
X2481190Y-1591476D02*
X2500238Y-1591476D01*
X2519286Y-1601000D01*
X2528810Y-1610524D01*
X2538333Y-1629571D01*
X2547857Y-1667667D01*
X2547857Y-1715286D01*
X2538333Y-1753381D01*
X2528810Y-1772428D01*
X2519286Y-1781952D01*
X2500238Y-1791476D01*
X2481190Y-1791476D01*
X2462143Y-1781952D01*
X2452619Y-1772428D01*
X2443095Y-1753381D01*
X2433571Y-1715286D01*
X2433571Y-1667667D01*
X2443095Y-1629571D01*
X2452619Y-1610524D01*
X2462143Y-1601000D01*
X2481190Y-1591476D01*
X2719286Y-1658143D02*
X2719286Y-1791476D01*
X2671667Y-1581952D02*
X2624048Y-1724809D01*
X2747857Y-1724809D01*
X2805000Y-1591476D02*
X2938333Y-1591476D01*
X2852619Y-1791476D01*
X3005000Y-1610524D02*
X3014524Y-1601000D01*
X3033571Y-1591476D01*
X3081190Y-1591476D01*
X3100238Y-1601000D01*
X3109762Y-1610524D01*
X3119286Y-1629571D01*
X3119286Y-1648619D01*
X3109762Y-1677190D01*
X2995476Y-1791476D01*
X3119286Y-1791476D01*
X3195476Y-1591476D02*
X3195476Y-1629571D01*
X3271667Y-1591476D02*
X3271667Y-1629571D01*
X3566905Y-1867667D02*
X3557381Y-1858143D01*
X3538333Y-1829571D01*
X3528809Y-1810524D01*
X3519286Y-1781952D01*
X3509762Y-1734333D01*
X3509762Y-1696238D01*
X3519286Y-1648619D01*
X3528809Y-1620048D01*
X3538333Y-1601000D01*
X3557381Y-1572428D01*
X3566905Y-1562905D01*
X3728809Y-1658143D02*
X3728809Y-1791476D01*
X3681190Y-1581952D02*
X3633571Y-1724809D01*
X3757381Y-1724809D01*
X3985952Y-1791476D02*
X3985952Y-1591476D01*
X4071667Y-1791476D02*
X4071667Y-1686714D01*
X4062143Y-1667667D01*
X4043095Y-1658143D01*
X4014524Y-1658143D01*
X3995476Y-1667667D01*
X3985952Y-1677190D01*
X4195476Y-1791476D02*
X4176428Y-1781952D01*
X4166905Y-1772428D01*
X4157381Y-1753381D01*
X4157381Y-1696238D01*
X4166905Y-1677190D01*
X4176428Y-1667667D01*
X4195476Y-1658143D01*
X4224048Y-1658143D01*
X4243095Y-1667667D01*
X4252619Y-1677190D01*
X4262143Y-1696238D01*
X4262143Y-1753381D01*
X4252619Y-1772428D01*
X4243095Y-1781952D01*
X4224048Y-1791476D01*
X4195476Y-1791476D01*
X4376429Y-1791476D02*
X4357381Y-1781952D01*
X4347857Y-1762905D01*
X4347857Y-1591476D01*
X4528810Y-1781952D02*
X4509762Y-1791476D01*
X4471667Y-1791476D01*
X4452619Y-1781952D01*
X4443095Y-1762905D01*
X4443095Y-1686714D01*
X4452619Y-1667667D01*
X4471667Y-1658143D01*
X4509762Y-1658143D01*
X4528810Y-1667667D01*
X4538333Y-1686714D01*
X4538333Y-1705762D01*
X4443095Y-1724809D01*
X4614524Y-1781952D02*
X4633571Y-1791476D01*
X4671667Y-1791476D01*
X4690714Y-1781952D01*
X4700238Y-1762905D01*
X4700238Y-1753381D01*
X4690714Y-1734333D01*
X4671667Y-1724809D01*
X4643095Y-1724809D01*
X4624048Y-1715286D01*
X4614524Y-1696238D01*
X4614524Y-1686714D01*
X4624048Y-1667667D01*
X4643095Y-1658143D01*
X4671667Y-1658143D01*
X4690714Y-1667667D01*
X4766905Y-1867667D02*
X4776429Y-1858143D01*
X4795476Y-1829571D01*
X4805000Y-1810524D01*
X4814524Y-1781952D01*
X4824048Y-1734333D01*
X4824048Y-1696238D01*
X4814524Y-1648619D01*
X4805000Y-1620048D01*
X4795476Y-1601000D01*
X4776429Y-1572428D01*
X4766905Y-1562905D01*
D16*
X-145000Y-1895000D02*
X-5000Y-2035000D01*
X-5000Y-1895000D02*
X-145000Y-2035000D01*
X-5000Y-1965000D02*
G75*
G03*
X-5000Y-1965000I-70000J0D01*
G01*
D11*
X357381Y-2055476D02*
X243095Y-2055476D01*
X300238Y-2055476D02*
X300238Y-1855476D01*
X281190Y-1884048D01*
X262143Y-1903095D01*
X243095Y-1912619D01*
X443095Y-2036428D02*
X452619Y-2045952D01*
X443095Y-2055476D01*
X433571Y-2045952D01*
X443095Y-2036428D01*
X443095Y-2055476D01*
X624048Y-1922143D02*
X624048Y-2055476D01*
X576429Y-1845952D02*
X528810Y-1988809D01*
X652619Y-1988809D01*
X766905Y-1855476D02*
X785952Y-1855476D01*
X805000Y-1865000D01*
X814524Y-1874524D01*
X824048Y-1893571D01*
X833571Y-1931667D01*
X833571Y-1979286D01*
X824048Y-2017381D01*
X814524Y-2036428D01*
X805000Y-2045952D01*
X785952Y-2055476D01*
X766905Y-2055476D01*
X747857Y-2045952D01*
X738333Y-2036428D01*
X728809Y-2017381D01*
X719286Y-1979286D01*
X719286Y-1931667D01*
X728809Y-1893571D01*
X738333Y-1874524D01*
X747857Y-1865000D01*
X766905Y-1855476D01*
X957381Y-1855476D02*
X976428Y-1855476D01*
X995476Y-1865000D01*
X1005000Y-1874524D01*
X1014524Y-1893571D01*
X1024048Y-1931667D01*
X1024048Y-1979286D01*
X1014524Y-2017381D01*
X1005000Y-2036428D01*
X995476Y-2045952D01*
X976428Y-2055476D01*
X957381Y-2055476D01*
X938333Y-2045952D01*
X928809Y-2036428D01*
X919286Y-2017381D01*
X909762Y-1979286D01*
X909762Y-1931667D01*
X919286Y-1893571D01*
X928809Y-1874524D01*
X938333Y-1865000D01*
X957381Y-1855476D01*
X1109762Y-2055476D02*
X1109762Y-1922143D01*
X1109762Y-1941190D02*
X1119286Y-1931667D01*
X1138333Y-1922143D01*
X1166905Y-1922143D01*
X1185952Y-1931667D01*
X1195476Y-1950714D01*
X1195476Y-2055476D01*
X1195476Y-1950714D02*
X1205000Y-1931667D01*
X1224048Y-1922143D01*
X1252619Y-1922143D01*
X1271667Y-1931667D01*
X1281190Y-1950714D01*
X1281190Y-2055476D01*
X1376429Y-2055476D02*
X1376429Y-1922143D01*
X1376429Y-1941190D02*
X1385952Y-1931667D01*
X1405000Y-1922143D01*
X1433571Y-1922143D01*
X1452619Y-1931667D01*
X1462143Y-1950714D01*
X1462143Y-2055476D01*
X1462143Y-1950714D02*
X1471667Y-1931667D01*
X1490714Y-1922143D01*
X1519286Y-1922143D01*
X1538333Y-1931667D01*
X1547857Y-1950714D01*
X1547857Y-2055476D01*
X1938333Y-1845952D02*
X1766905Y-2103095D01*
X2195476Y-1855476D02*
X2214524Y-1855476D01*
X2233571Y-1865000D01*
X2243095Y-1874524D01*
X2252619Y-1893571D01*
X2262143Y-1931667D01*
X2262143Y-1979286D01*
X2252619Y-2017381D01*
X2243095Y-2036428D01*
X2233571Y-2045952D01*
X2214524Y-2055476D01*
X2195476Y-2055476D01*
X2176429Y-2045952D01*
X2166905Y-2036428D01*
X2157381Y-2017381D01*
X2147857Y-1979286D01*
X2147857Y-1931667D01*
X2157381Y-1893571D01*
X2166905Y-1874524D01*
X2176429Y-1865000D01*
X2195476Y-1855476D01*
X2347857Y-2036428D02*
X2357381Y-2045952D01*
X2347857Y-2055476D01*
X2338333Y-2045952D01*
X2347857Y-2036428D01*
X2347857Y-2055476D01*
X2481190Y-1855476D02*
X2500238Y-1855476D01*
X2519286Y-1865000D01*
X2528810Y-1874524D01*
X2538333Y-1893571D01*
X2547857Y-1931667D01*
X2547857Y-1979286D01*
X2538333Y-2017381D01*
X2528810Y-2036428D01*
X2519286Y-2045952D01*
X2500238Y-2055476D01*
X2481190Y-2055476D01*
X2462143Y-2045952D01*
X2452619Y-2036428D01*
X2443095Y-2017381D01*
X2433571Y-1979286D01*
X2433571Y-1931667D01*
X2443095Y-1893571D01*
X2452619Y-1874524D01*
X2462143Y-1865000D01*
X2481190Y-1855476D01*
X2728810Y-1855476D02*
X2633571Y-1855476D01*
X2624048Y-1950714D01*
X2633571Y-1941190D01*
X2652619Y-1931667D01*
X2700238Y-1931667D01*
X2719286Y-1941190D01*
X2728810Y-1950714D01*
X2738333Y-1969762D01*
X2738333Y-2017381D01*
X2728810Y-2036428D01*
X2719286Y-2045952D01*
X2700238Y-2055476D01*
X2652619Y-2055476D01*
X2633571Y-2045952D01*
X2624048Y-2036428D01*
X2919286Y-1855476D02*
X2824048Y-1855476D01*
X2814524Y-1950714D01*
X2824048Y-1941190D01*
X2843095Y-1931667D01*
X2890714Y-1931667D01*
X2909762Y-1941190D01*
X2919286Y-1950714D01*
X2928809Y-1969762D01*
X2928809Y-2017381D01*
X2919286Y-2036428D01*
X2909762Y-2045952D01*
X2890714Y-2055476D01*
X2843095Y-2055476D01*
X2824048Y-2045952D01*
X2814524Y-2036428D01*
X3119286Y-2055476D02*
X3005000Y-2055476D01*
X3062143Y-2055476D02*
X3062143Y-1855476D01*
X3043095Y-1884048D01*
X3024048Y-1903095D01*
X3005000Y-1912619D01*
X3195476Y-1855476D02*
X3195476Y-1893571D01*
X3271667Y-1855476D02*
X3271667Y-1893571D01*
X3566905Y-2131667D02*
X3557381Y-2122143D01*
X3538333Y-2093571D01*
X3528809Y-2074524D01*
X3519286Y-2045952D01*
X3509762Y-1998333D01*
X3509762Y-1960238D01*
X3519286Y-1912619D01*
X3528809Y-1884048D01*
X3538333Y-1865000D01*
X3557381Y-1836428D01*
X3566905Y-1826905D01*
X3747857Y-2055476D02*
X3633571Y-2055476D01*
X3690714Y-2055476D02*
X3690714Y-1855476D01*
X3671667Y-1884048D01*
X3652619Y-1903095D01*
X3633571Y-1912619D01*
X3824048Y-1874524D02*
X3833571Y-1865000D01*
X3852619Y-1855476D01*
X3900238Y-1855476D01*
X3919286Y-1865000D01*
X3928809Y-1874524D01*
X3938333Y-1893571D01*
X3938333Y-1912619D01*
X3928809Y-1941190D01*
X3814524Y-2055476D01*
X3938333Y-2055476D01*
X4176428Y-2055476D02*
X4176428Y-1855476D01*
X4262143Y-2055476D02*
X4262143Y-1950714D01*
X4252619Y-1931667D01*
X4233571Y-1922143D01*
X4205000Y-1922143D01*
X4185952Y-1931667D01*
X4176428Y-1941190D01*
X4385952Y-2055476D02*
X4366905Y-2045952D01*
X4357381Y-2036428D01*
X4347857Y-2017381D01*
X4347857Y-1960238D01*
X4357381Y-1941190D01*
X4366905Y-1931667D01*
X4385952Y-1922143D01*
X4414524Y-1922143D01*
X4433571Y-1931667D01*
X4443095Y-1941190D01*
X4452619Y-1960238D01*
X4452619Y-2017381D01*
X4443095Y-2036428D01*
X4433571Y-2045952D01*
X4414524Y-2055476D01*
X4385952Y-2055476D01*
X4566905Y-2055476D02*
X4547857Y-2045952D01*
X4538333Y-2026905D01*
X4538333Y-1855476D01*
X4719286Y-2045952D02*
X4700238Y-2055476D01*
X4662143Y-2055476D01*
X4643095Y-2045952D01*
X4633571Y-2026905D01*
X4633571Y-1950714D01*
X4643095Y-1931667D01*
X4662143Y-1922143D01*
X4700238Y-1922143D01*
X4719286Y-1931667D01*
X4728810Y-1950714D01*
X4728810Y-1969762D01*
X4633571Y-1988809D01*
X4805000Y-2045952D02*
X4824048Y-2055476D01*
X4862143Y-2055476D01*
X4881190Y-2045952D01*
X4890714Y-2026905D01*
X4890714Y-2017381D01*
X4881190Y-1998333D01*
X4862143Y-1988809D01*
X4833571Y-1988809D01*
X4814524Y-1979286D01*
X4805000Y-1960238D01*
X4805000Y-1950714D01*
X4814524Y-1931667D01*
X4833571Y-1922143D01*
X4862143Y-1922143D01*
X4881190Y-1931667D01*
X4957381Y-2131667D02*
X4966905Y-2122143D01*
X4985952Y-2093571D01*
X4995476Y-2074524D01*
X5005000Y-2045952D01*
X5014524Y-1998333D01*
X5014524Y-1960238D01*
X5005000Y-1912619D01*
X4995476Y-1884048D01*
X4985952Y-1865000D01*
X4966905Y-1836428D01*
X4957381Y-1826905D01*
D17*
X-165000Y-2149000D02*
X-5000Y-2309000D01*
X-5000Y-2149000D02*
X-165000Y-2309000D01*
X-85000Y-2149000D02*
X-85000Y-2309000D01*
X-165000Y-2229000D02*
X-5000Y-2229000D01*
D11*
X357381Y-2319476D02*
X243095Y-2319476D01*
X300238Y-2319476D02*
X300238Y-2119476D01*
X281190Y-2148048D01*
X262143Y-2167095D01*
X243095Y-2176619D01*
X443095Y-2300429D02*
X452619Y-2309952D01*
X443095Y-2319476D01*
X433571Y-2309952D01*
X443095Y-2300429D01*
X443095Y-2319476D01*
X624048Y-2119476D02*
X585952Y-2119476D01*
X566905Y-2129000D01*
X557381Y-2138524D01*
X538333Y-2167095D01*
X528810Y-2205190D01*
X528810Y-2281381D01*
X538333Y-2300429D01*
X547857Y-2309952D01*
X566905Y-2319476D01*
X605000Y-2319476D01*
X624048Y-2309952D01*
X633571Y-2300429D01*
X643095Y-2281381D01*
X643095Y-2233762D01*
X633571Y-2214714D01*
X624048Y-2205190D01*
X605000Y-2195667D01*
X566905Y-2195667D01*
X547857Y-2205190D01*
X538333Y-2214714D01*
X528810Y-2233762D01*
X766905Y-2119476D02*
X785952Y-2119476D01*
X805000Y-2129000D01*
X814524Y-2138524D01*
X824048Y-2157571D01*
X833571Y-2195667D01*
X833571Y-2243286D01*
X824048Y-2281381D01*
X814524Y-2300429D01*
X805000Y-2309952D01*
X785952Y-2319476D01*
X766905Y-2319476D01*
X747857Y-2309952D01*
X738333Y-2300429D01*
X728809Y-2281381D01*
X719286Y-2243286D01*
X719286Y-2195667D01*
X728809Y-2157571D01*
X738333Y-2138524D01*
X747857Y-2129000D01*
X766905Y-2119476D01*
X957381Y-2119476D02*
X976428Y-2119476D01*
X995476Y-2129000D01*
X1005000Y-2138524D01*
X1014524Y-2157571D01*
X1024048Y-2195667D01*
X1024048Y-2243286D01*
X1014524Y-2281381D01*
X1005000Y-2300429D01*
X995476Y-2309952D01*
X976428Y-2319476D01*
X957381Y-2319476D01*
X938333Y-2309952D01*
X928809Y-2300429D01*
X919286Y-2281381D01*
X909762Y-2243286D01*
X909762Y-2195667D01*
X919286Y-2157571D01*
X928809Y-2138524D01*
X938333Y-2129000D01*
X957381Y-2119476D01*
X1109762Y-2319476D02*
X1109762Y-2186143D01*
X1109762Y-2205190D02*
X1119286Y-2195667D01*
X1138333Y-2186143D01*
X1166905Y-2186143D01*
X1185952Y-2195667D01*
X1195476Y-2214714D01*
X1195476Y-2319476D01*
X1195476Y-2214714D02*
X1205000Y-2195667D01*
X1224048Y-2186143D01*
X1252619Y-2186143D01*
X1271667Y-2195667D01*
X1281190Y-2214714D01*
X1281190Y-2319476D01*
X1376429Y-2319476D02*
X1376429Y-2186143D01*
X1376429Y-2205190D02*
X1385952Y-2195667D01*
X1405000Y-2186143D01*
X1433571Y-2186143D01*
X1452619Y-2195667D01*
X1462143Y-2214714D01*
X1462143Y-2319476D01*
X1462143Y-2214714D02*
X1471667Y-2195667D01*
X1490714Y-2186143D01*
X1519286Y-2186143D01*
X1538333Y-2195667D01*
X1547857Y-2214714D01*
X1547857Y-2319476D01*
X1938333Y-2109952D02*
X1766905Y-2367095D01*
X2195476Y-2119476D02*
X2214524Y-2119476D01*
X2233571Y-2129000D01*
X2243095Y-2138524D01*
X2252619Y-2157571D01*
X2262143Y-2195667D01*
X2262143Y-2243286D01*
X2252619Y-2281381D01*
X2243095Y-2300429D01*
X2233571Y-2309952D01*
X2214524Y-2319476D01*
X2195476Y-2319476D01*
X2176429Y-2309952D01*
X2166905Y-2300429D01*
X2157381Y-2281381D01*
X2147857Y-2243286D01*
X2147857Y-2195667D01*
X2157381Y-2157571D01*
X2166905Y-2138524D01*
X2176429Y-2129000D01*
X2195476Y-2119476D01*
X2347857Y-2300429D02*
X2357381Y-2309952D01*
X2347857Y-2319476D01*
X2338333Y-2309952D01*
X2347857Y-2300429D01*
X2347857Y-2319476D01*
X2481190Y-2119476D02*
X2500238Y-2119476D01*
X2519286Y-2129000D01*
X2528810Y-2138524D01*
X2538333Y-2157571D01*
X2547857Y-2195667D01*
X2547857Y-2243286D01*
X2538333Y-2281381D01*
X2528810Y-2300429D01*
X2519286Y-2309952D01*
X2500238Y-2319476D01*
X2481190Y-2319476D01*
X2462143Y-2309952D01*
X2452619Y-2300429D01*
X2443095Y-2281381D01*
X2433571Y-2243286D01*
X2433571Y-2195667D01*
X2443095Y-2157571D01*
X2452619Y-2138524D01*
X2462143Y-2129000D01*
X2481190Y-2119476D01*
X2719286Y-2119476D02*
X2681190Y-2119476D01*
X2662143Y-2129000D01*
X2652619Y-2138524D01*
X2633571Y-2167095D01*
X2624048Y-2205190D01*
X2624048Y-2281381D01*
X2633571Y-2300429D01*
X2643095Y-2309952D01*
X2662143Y-2319476D01*
X2700238Y-2319476D01*
X2719286Y-2309952D01*
X2728810Y-2300429D01*
X2738333Y-2281381D01*
X2738333Y-2233762D01*
X2728810Y-2214714D01*
X2719286Y-2205190D01*
X2700238Y-2195667D01*
X2662143Y-2195667D01*
X2643095Y-2205190D01*
X2633571Y-2214714D01*
X2624048Y-2233762D01*
X2805000Y-2119476D02*
X2928809Y-2119476D01*
X2862143Y-2195667D01*
X2890714Y-2195667D01*
X2909762Y-2205190D01*
X2919286Y-2214714D01*
X2928809Y-2233762D01*
X2928809Y-2281381D01*
X2919286Y-2300429D01*
X2909762Y-2309952D01*
X2890714Y-2319476D01*
X2833571Y-2319476D01*
X2814524Y-2309952D01*
X2805000Y-2300429D01*
X3052619Y-2119476D02*
X3071667Y-2119476D01*
X3090714Y-2129000D01*
X3100238Y-2138524D01*
X3109762Y-2157571D01*
X3119286Y-2195667D01*
X3119286Y-2243286D01*
X3109762Y-2281381D01*
X3100238Y-2300429D01*
X3090714Y-2309952D01*
X3071667Y-2319476D01*
X3052619Y-2319476D01*
X3033571Y-2309952D01*
X3024048Y-2300429D01*
X3014524Y-2281381D01*
X3005000Y-2243286D01*
X3005000Y-2195667D01*
X3014524Y-2157571D01*
X3024048Y-2138524D01*
X3033571Y-2129000D01*
X3052619Y-2119476D01*
X3195476Y-2119476D02*
X3195476Y-2157571D01*
X3271667Y-2119476D02*
X3271667Y-2157571D01*
X3566905Y-2395667D02*
X3557381Y-2386143D01*
X3538333Y-2357571D01*
X3528809Y-2338524D01*
X3519286Y-2309952D01*
X3509762Y-2262333D01*
X3509762Y-2224238D01*
X3519286Y-2176619D01*
X3528809Y-2148048D01*
X3538333Y-2129000D01*
X3557381Y-2100429D01*
X3566905Y-2090905D01*
X3671667Y-2205190D02*
X3652619Y-2195667D01*
X3643095Y-2186143D01*
X3633571Y-2167095D01*
X3633571Y-2157571D01*
X3643095Y-2138524D01*
X3652619Y-2129000D01*
X3671667Y-2119476D01*
X3709762Y-2119476D01*
X3728809Y-2129000D01*
X3738333Y-2138524D01*
X3747857Y-2157571D01*
X3747857Y-2167095D01*
X3738333Y-2186143D01*
X3728809Y-2195667D01*
X3709762Y-2205190D01*
X3671667Y-2205190D01*
X3652619Y-2214714D01*
X3643095Y-2224238D01*
X3633571Y-2243286D01*
X3633571Y-2281381D01*
X3643095Y-2300429D01*
X3652619Y-2309952D01*
X3671667Y-2319476D01*
X3709762Y-2319476D01*
X3728809Y-2309952D01*
X3738333Y-2300429D01*
X3747857Y-2281381D01*
X3747857Y-2243286D01*
X3738333Y-2224238D01*
X3728809Y-2214714D01*
X3709762Y-2205190D01*
X3985952Y-2319476D02*
X3985952Y-2119476D01*
X4071667Y-2319476D02*
X4071667Y-2214714D01*
X4062143Y-2195667D01*
X4043095Y-2186143D01*
X4014524Y-2186143D01*
X3995476Y-2195667D01*
X3985952Y-2205190D01*
X4195476Y-2319476D02*
X4176428Y-2309952D01*
X4166905Y-2300429D01*
X4157381Y-2281381D01*
X4157381Y-2224238D01*
X4166905Y-2205190D01*
X4176428Y-2195667D01*
X4195476Y-2186143D01*
X4224048Y-2186143D01*
X4243095Y-2195667D01*
X4252619Y-2205190D01*
X4262143Y-2224238D01*
X4262143Y-2281381D01*
X4252619Y-2300429D01*
X4243095Y-2309952D01*
X4224048Y-2319476D01*
X4195476Y-2319476D01*
X4376429Y-2319476D02*
X4357381Y-2309952D01*
X4347857Y-2290905D01*
X4347857Y-2119476D01*
X4528810Y-2309952D02*
X4509762Y-2319476D01*
X4471667Y-2319476D01*
X4452619Y-2309952D01*
X4443095Y-2290905D01*
X4443095Y-2214714D01*
X4452619Y-2195667D01*
X4471667Y-2186143D01*
X4509762Y-2186143D01*
X4528810Y-2195667D01*
X4538333Y-2214714D01*
X4538333Y-2233762D01*
X4443095Y-2252810D01*
X4614524Y-2309952D02*
X4633571Y-2319476D01*
X4671667Y-2319476D01*
X4690714Y-2309952D01*
X4700238Y-2290905D01*
X4700238Y-2281381D01*
X4690714Y-2262333D01*
X4671667Y-2252810D01*
X4643095Y-2252810D01*
X4624048Y-2243286D01*
X4614524Y-2224238D01*
X4614524Y-2214714D01*
X4624048Y-2195667D01*
X4643095Y-2186143D01*
X4671667Y-2186143D01*
X4690714Y-2195667D01*
X4766905Y-2395667D02*
X4776429Y-2386143D01*
X4795476Y-2357571D01*
X4805000Y-2338524D01*
X4814524Y-2309952D01*
X4824048Y-2262333D01*
X4824048Y-2224238D01*
X4814524Y-2176619D01*
X4805000Y-2148048D01*
X4795476Y-2129000D01*
X4776429Y-2100429D01*
X4766905Y-2090905D01*
X-205000Y-2409000D02*
X-5000Y-2609000D01*
X-5000Y-2409000D02*
X-205000Y-2609000D01*
X-34289Y-2579711D02*
X-34289Y-2438289D01*
X-175711Y-2438289D01*
X-175711Y-2579711D01*
X-34289Y-2579711D01*
X233571Y-2399476D02*
X357381Y-2399476D01*
X290714Y-2475667D01*
X319286Y-2475667D01*
X338333Y-2485190D01*
X347857Y-2494714D01*
X357381Y-2513762D01*
X357381Y-2561381D01*
X347857Y-2580429D01*
X338333Y-2589952D01*
X319286Y-2599476D01*
X262143Y-2599476D01*
X243095Y-2589952D01*
X233571Y-2580429D01*
X443095Y-2580429D02*
X452619Y-2589952D01*
X443095Y-2599476D01*
X433571Y-2589952D01*
X443095Y-2580429D01*
X443095Y-2599476D01*
X519286Y-2399476D02*
X652619Y-2399476D01*
X566905Y-2599476D01*
X824048Y-2399476D02*
X728809Y-2399476D01*
X719286Y-2494714D01*
X728809Y-2485190D01*
X747857Y-2475667D01*
X795476Y-2475667D01*
X814524Y-2485190D01*
X824048Y-2494714D01*
X833571Y-2513762D01*
X833571Y-2561381D01*
X824048Y-2580429D01*
X814524Y-2589952D01*
X795476Y-2599476D01*
X747857Y-2599476D01*
X728809Y-2589952D01*
X719286Y-2580429D01*
X957381Y-2399476D02*
X976428Y-2399476D01*
X995476Y-2409000D01*
X1005000Y-2418524D01*
X1014524Y-2437571D01*
X1024048Y-2475667D01*
X1024048Y-2523286D01*
X1014524Y-2561381D01*
X1005000Y-2580429D01*
X995476Y-2589952D01*
X976428Y-2599476D01*
X957381Y-2599476D01*
X938333Y-2589952D01*
X928809Y-2580429D01*
X919286Y-2561381D01*
X909762Y-2523286D01*
X909762Y-2475667D01*
X919286Y-2437571D01*
X928809Y-2418524D01*
X938333Y-2409000D01*
X957381Y-2399476D01*
X1109762Y-2599476D02*
X1109762Y-2466143D01*
X1109762Y-2485190D02*
X1119286Y-2475667D01*
X1138333Y-2466143D01*
X1166905Y-2466143D01*
X1185952Y-2475667D01*
X1195476Y-2494714D01*
X1195476Y-2599476D01*
X1195476Y-2494714D02*
X1205000Y-2475667D01*
X1224048Y-2466143D01*
X1252619Y-2466143D01*
X1271667Y-2475667D01*
X1281190Y-2494714D01*
X1281190Y-2599476D01*
X1376429Y-2599476D02*
X1376429Y-2466143D01*
X1376429Y-2485190D02*
X1385952Y-2475667D01*
X1405000Y-2466143D01*
X1433571Y-2466143D01*
X1452619Y-2475667D01*
X1462143Y-2494714D01*
X1462143Y-2599476D01*
X1462143Y-2494714D02*
X1471667Y-2475667D01*
X1490714Y-2466143D01*
X1519286Y-2466143D01*
X1538333Y-2475667D01*
X1547857Y-2494714D01*
X1547857Y-2599476D01*
X1938333Y-2389952D02*
X1766905Y-2647095D01*
X2195476Y-2399476D02*
X2214524Y-2399476D01*
X2233571Y-2409000D01*
X2243095Y-2418524D01*
X2252619Y-2437571D01*
X2262143Y-2475667D01*
X2262143Y-2523286D01*
X2252619Y-2561381D01*
X2243095Y-2580429D01*
X2233571Y-2589952D01*
X2214524Y-2599476D01*
X2195476Y-2599476D01*
X2176429Y-2589952D01*
X2166905Y-2580429D01*
X2157381Y-2561381D01*
X2147857Y-2523286D01*
X2147857Y-2475667D01*
X2157381Y-2437571D01*
X2166905Y-2418524D01*
X2176429Y-2409000D01*
X2195476Y-2399476D01*
X2347857Y-2580429D02*
X2357381Y-2589952D01*
X2347857Y-2599476D01*
X2338333Y-2589952D01*
X2347857Y-2580429D01*
X2347857Y-2599476D01*
X2547857Y-2599476D02*
X2433571Y-2599476D01*
X2490714Y-2599476D02*
X2490714Y-2399476D01*
X2471667Y-2428048D01*
X2452619Y-2447095D01*
X2433571Y-2456619D01*
X2719286Y-2466143D02*
X2719286Y-2599476D01*
X2671667Y-2389952D02*
X2624048Y-2532810D01*
X2747857Y-2532810D01*
X2805000Y-2399476D02*
X2938333Y-2399476D01*
X2852619Y-2599476D01*
X3100238Y-2399476D02*
X3062143Y-2399476D01*
X3043095Y-2409000D01*
X3033571Y-2418524D01*
X3014524Y-2447095D01*
X3005000Y-2485190D01*
X3005000Y-2561381D01*
X3014524Y-2580429D01*
X3024048Y-2589952D01*
X3043095Y-2599476D01*
X3081190Y-2599476D01*
X3100238Y-2589952D01*
X3109762Y-2580429D01*
X3119286Y-2561381D01*
X3119286Y-2513762D01*
X3109762Y-2494714D01*
X3100238Y-2485190D01*
X3081190Y-2475667D01*
X3043095Y-2475667D01*
X3024048Y-2485190D01*
X3014524Y-2494714D01*
X3005000Y-2513762D01*
X3195476Y-2399476D02*
X3195476Y-2437571D01*
X3271667Y-2399476D02*
X3271667Y-2437571D01*
X3566905Y-2675667D02*
X3557381Y-2666143D01*
X3538333Y-2637571D01*
X3528809Y-2618524D01*
X3519286Y-2589952D01*
X3509762Y-2542333D01*
X3509762Y-2504238D01*
X3519286Y-2456619D01*
X3528809Y-2428048D01*
X3538333Y-2409000D01*
X3557381Y-2380429D01*
X3566905Y-2370905D01*
X3728809Y-2399476D02*
X3690714Y-2399476D01*
X3671667Y-2409000D01*
X3662143Y-2418524D01*
X3643095Y-2447095D01*
X3633571Y-2485190D01*
X3633571Y-2561381D01*
X3643095Y-2580429D01*
X3652619Y-2589952D01*
X3671667Y-2599476D01*
X3709762Y-2599476D01*
X3728809Y-2589952D01*
X3738333Y-2580429D01*
X3747857Y-2561381D01*
X3747857Y-2513762D01*
X3738333Y-2494714D01*
X3728809Y-2485190D01*
X3709762Y-2475667D01*
X3671667Y-2475667D01*
X3652619Y-2485190D01*
X3643095Y-2494714D01*
X3633571Y-2513762D01*
X3985952Y-2599476D02*
X3985952Y-2399476D01*
X4071667Y-2599476D02*
X4071667Y-2494714D01*
X4062143Y-2475667D01*
X4043095Y-2466143D01*
X4014524Y-2466143D01*
X3995476Y-2475667D01*
X3985952Y-2485190D01*
X4195476Y-2599476D02*
X4176428Y-2589952D01*
X4166905Y-2580429D01*
X4157381Y-2561381D01*
X4157381Y-2504238D01*
X4166905Y-2485190D01*
X4176428Y-2475667D01*
X4195476Y-2466143D01*
X4224048Y-2466143D01*
X4243095Y-2475667D01*
X4252619Y-2485190D01*
X4262143Y-2504238D01*
X4262143Y-2561381D01*
X4252619Y-2580429D01*
X4243095Y-2589952D01*
X4224048Y-2599476D01*
X4195476Y-2599476D01*
X4376429Y-2599476D02*
X4357381Y-2589952D01*
X4347857Y-2570905D01*
X4347857Y-2399476D01*
X4528810Y-2589952D02*
X4509762Y-2599476D01*
X4471667Y-2599476D01*
X4452619Y-2589952D01*
X4443095Y-2570905D01*
X4443095Y-2494714D01*
X4452619Y-2475667D01*
X4471667Y-2466143D01*
X4509762Y-2466143D01*
X4528810Y-2475667D01*
X4538333Y-2494714D01*
X4538333Y-2513762D01*
X4443095Y-2532810D01*
X4614524Y-2589952D02*
X4633571Y-2599476D01*
X4671667Y-2599476D01*
X4690714Y-2589952D01*
X4700238Y-2570905D01*
X4700238Y-2561381D01*
X4690714Y-2542333D01*
X4671667Y-2532810D01*
X4643095Y-2532810D01*
X4624048Y-2523286D01*
X4614524Y-2504238D01*
X4614524Y-2494714D01*
X4624048Y-2475667D01*
X4643095Y-2466143D01*
X4671667Y-2466143D01*
X4690714Y-2475667D01*
X4766905Y-2675667D02*
X4776429Y-2666143D01*
X4795476Y-2637571D01*
X4805000Y-2618524D01*
X4814524Y-2589952D01*
X4824048Y-2542333D01*
X4824048Y-2504238D01*
X4814524Y-2456619D01*
X4805000Y-2428048D01*
X4795476Y-2409000D01*
X4776429Y-2380429D01*
X4766905Y-2370905D01*
M02*
